<svg xmlns="http://www.w3.org/2000/svg" width="178" height="101" viewBox="0 0 178 101" fill="none"><path d="M125.075 32.3177C125.897 33.5462 126.686 35.0617 126.298 36.6858C124.959 35.9194 123.882 34.6681 123.028 33.4328C122.168 32.1892 121.275 30.8668 120.969 29.334C122.658 29.766 124.17 30.9652 125.075 32.3177Z" fill="white" fill-opacity="0.75"></path><path d="M52.4801 36.6832C52.0931 35.0588 52.8837 33.5438 53.7072 32.316C54.6137 30.9643 56.1262 29.7662 57.8154 29.3354C57.5085 30.8679 56.6141 32.1899 55.7532 33.4327C54.8981 34.6674 53.8196 35.9179 52.4801 36.6832Z" fill="white" fill-opacity="0.75"></path><path d="M51.3025 39.799C51.6046 38.5126 51.5979 37.1043 51.3103 35.8977C51.0574 34.8373 50.6894 33.3383 49.4782 32.8325C48.5978 34.2447 48.2439 36.1678 48.757 37.6088C49.128 38.6511 49.7952 40.0292 51.1789 40.2425C52.4486 40.5352 53.7325 39.8579 54.7465 39.2987C55.874 38.677 56.9784 37.6879 57.6494 36.512C56.4185 35.8907 55.0167 36.3949 53.9621 36.8781C52.8253 37.399 51.781 38.5166 51.3025 39.799Z" fill="white" fill-opacity="0.75"></path><path d="M75.9441 41.0348V34.5762H73.7391V36.9293H70.4316V34.5762H68.2266V41.0348H70.4316V38.69H73.7391V41.0348H75.9441Z" fill="white" fill-opacity="0.75"></path><path d="M83.2552 34.5762H85.6905L82.235 38.9039V41.0348H80.0218V38.9121L76.6074 34.5762H79.1167L81.1572 37.1596L83.2552 34.5762Z" fill="white" fill-opacity="0.75"></path><path fill-rule="evenodd" clip-rule="evenodd" d="M93.3704 35.1274C93.8065 35.473 94.0533 36.0572 94.0533 36.9046C94.0533 37.5957 93.8805 38.114 93.5514 38.4761C93.1071 38.9862 92.3749 39.2165 91.4205 39.2248C91.1243 39.233 88.5902 39.2248 88.5902 39.2248V41.0348H86.377V34.5762H91.3876C92.2761 34.5762 92.9508 34.7572 93.3704 35.1274ZM91.7331 37.4065C91.799 37.2913 91.8319 37.1432 91.8319 36.9375C91.8319 36.7236 91.7907 36.5426 91.7167 36.4439C91.5768 36.2382 91.3135 36.1394 90.8857 36.1394H88.5738V37.7191H90.8692C91.33 37.7191 91.6015 37.6122 91.7331 37.4065Z" fill="white" fill-opacity="0.75"></path><path d="M101.737 39.4304V41.0348H94.9336V34.5762H101.68V36.1888H97.1056V37.0198H101.548V38.5912H97.1056V39.4304H101.737Z" fill="white" fill-opacity="0.75"></path><path fill-rule="evenodd" clip-rule="evenodd" d="M109.998 35.2344C110.295 35.5388 110.434 35.9584 110.434 36.5426C110.434 37.0445 110.311 37.4723 110.105 37.7603C109.875 38.0729 109.521 38.3362 109.085 38.402L111.035 41.0348H108.583L106.979 38.7558H104.98V41.0348H102.783V34.5762H107.925C108.945 34.5762 109.612 34.823 109.998 35.2344ZM108.221 37.0856C108.279 36.9869 108.295 36.8552 108.295 36.7483C108.295 36.6249 108.279 36.4932 108.221 36.4109C108.106 36.197 107.876 36.1394 107.53 36.1394H104.988V37.316H107.571C107.925 37.316 108.139 37.2502 108.221 37.0856Z" fill="white" fill-opacity="0.75"></path><path d="M100.559 49.1356C100.559 47.6593 99.6211 46.8834 97.4335 46.6463C97.0779 46.6032 96.0326 46.4954 95.3752 46.4415C93.6833 46.2583 93.1769 46.1614 93.1769 45.7303C93.1769 45.3424 93.5756 45.1592 95.095 45.1592C96.1727 45.1592 96.7762 45.3639 97.0132 45.6764C97.1318 45.8273 97.1749 45.9458 97.1857 46.0644H100.289C100.257 45.8057 100.149 45.4393 99.9767 45.1161C99.4164 44.0384 98.0693 43.1763 95.1705 43.1763C91.9052 43.1763 90.1164 44.3294 90.1164 45.8381C90.1164 47.2929 91.1293 48.1442 93.8665 48.3921C94.176 48.4186 94.8407 48.4814 95.3849 48.5328L95.4185 48.536L95.4246 48.5366L95.427 48.5368L95.7201 48.5645C97.1533 48.7154 97.5413 48.8123 97.5413 49.265C97.5413 49.6852 97.1641 49.9115 95.58 49.9115C94.3515 49.9115 93.6295 49.7283 93.3708 49.4158C93.2631 49.2865 93.1876 49.0925 93.1661 48.9632H90.0625C90.0948 49.1787 90.1487 49.5236 90.2672 49.8038C90.7953 50.9892 92.1747 51.8944 95.3752 51.8944C98.8129 51.8944 100.559 50.9245 100.559 49.1356Z" fill="white" fill-opacity="0.75"></path><path fill-rule="evenodd" clip-rule="evenodd" d="M78.5575 50.9031C78.8808 50.5259 79.0424 49.9547 79.0424 49.3728C79.0424 48.8771 78.9131 48.4029 78.6437 48.0904C78.3204 47.6701 77.7492 47.3684 77.1458 47.293C77.5553 47.2391 77.9432 47.0236 78.1695 46.7434C78.4497 46.4093 78.579 45.9567 78.579 45.4071C78.579 44.8575 78.4174 44.3726 78.051 44.0062C77.6415 43.5859 76.8979 43.3057 75.7341 43.3057H68.4277V51.7652H75.9388C77.135 51.7652 78.0618 51.5065 78.5575 50.9031ZM75.5832 45.9136C75.5832 46.1184 75.5185 46.2908 75.4108 46.4093C75.2599 46.5494 74.9797 46.6033 74.6133 46.6033H71.2511V45.2239H74.5379C74.9474 45.2239 75.2276 45.2778 75.3784 45.4179C75.5185 45.5364 75.5832 45.7088 75.5832 45.9136ZM75.9065 49.6207C75.7341 49.7823 75.4323 49.847 74.9258 49.847H71.2511V48.4353H74.9582C75.4323 48.4353 75.7125 48.4999 75.8741 48.64C76.0035 48.7693 76.0573 48.931 76.0573 49.1465C76.0573 49.3513 76.0142 49.5129 75.9065 49.6207Z" fill="white" fill-opacity="0.75"></path><path d="M89.1893 49.6638V51.7652H80.2773V43.3057H89.1139V45.4179H83.1222V46.5063H88.9415V48.5646H83.1222V49.6638H89.1893Z" fill="white" fill-opacity="0.75"></path><path d="M111.044 45.4287V43.3057H100.947V45.4287H104.514V51.7652H107.466V45.4287H111.044Z" fill="white" fill-opacity="0.75"></path><path d="M110.789 59.2508H110.314L110.28 58.7934C110.135 59.0249 109.828 59.3028 109.18 59.3028C108.085 59.3028 107.576 58.6428 107.576 56.9577C107.576 55.6549 107.9 54.6069 109.237 54.6069C110.396 54.6069 110.749 55.3655 110.766 56.1819H110.187C110.17 55.6492 109.932 55.157 109.249 55.157C108.427 55.157 108.189 55.6492 108.189 56.9752C108.189 58.3591 108.485 58.7934 109.261 58.7934C109.805 58.7934 110.123 58.4923 110.228 58.1333V57.2705H109.058V56.7435H110.783V58.0754C110.783 58.4733 110.787 58.898 110.788 59.1115L110.789 59.2131V59.2508Z" fill="white" fill-opacity="0.75"></path><path fill-rule="evenodd" clip-rule="evenodd" d="M68.5375 58.0986H70.1588L70.4946 59.2509H71.1084L69.765 54.665H69.0181L67.582 59.2509H68.19L68.5375 58.0986ZM70.014 57.5833H68.6938C68.6938 57.5833 69.267 55.7304 69.2786 55.6899C69.2844 55.6609 69.3771 55.2498 69.3771 55.2498L69.4412 55.5539L69.4697 55.6899C69.4755 55.7188 70.014 57.5833 70.014 57.5833Z" fill="white" fill-opacity="0.75"></path><path d="M75.5024 54.665H76.0583L74.9755 59.2509H74.2864C74.2864 59.2509 73.5163 55.6841 73.5163 55.5335C73.5105 55.6841 72.723 59.2509 72.723 59.2509H72.034L70.9512 54.665H71.5765C71.5765 54.665 72.4161 58.2955 72.4161 58.4403C72.4161 58.2955 73.1863 54.665 73.1863 54.665H73.8753C73.8753 54.665 74.6454 58.3013 74.6454 58.4403C74.6454 58.3013 75.5024 54.665 75.5024 54.665Z" fill="white" fill-opacity="0.75"></path><path fill-rule="evenodd" clip-rule="evenodd" d="M78.4361 58.0986H76.8148L76.4674 59.2509H75.8594L77.2954 54.665H78.0424L79.3858 59.2509H78.772L78.4361 58.0986ZM76.9712 57.5833H78.2914C78.2914 57.5833 77.7529 55.7188 77.7471 55.6899L77.7033 55.4812L77.6544 55.2498C77.6544 55.2498 77.5618 55.6609 77.556 55.6899C77.5444 55.7304 76.9712 57.5833 76.9712 57.5833Z" fill="white" fill-opacity="0.75"></path><path fill-rule="evenodd" clip-rule="evenodd" d="M81.6172 54.665C82.3236 54.665 82.7058 54.995 82.7058 55.9562C82.7058 56.7727 82.3989 57.0448 82.0804 57.1374L82.9606 59.2509H82.3236L81.5072 57.2533H80.3955V59.2509H79.8164V54.665H81.6172ZM81.5304 56.7321C81.9878 56.7321 82.0978 56.4947 82.0978 55.9736C82.0978 55.383 81.9241 55.2035 81.5014 55.2035H80.4012V56.7321H81.5304Z" fill="white" fill-opacity="0.75"></path><path fill-rule="evenodd" clip-rule="evenodd" d="M86.5609 56.8827C86.5609 57.9655 86.4799 58.4055 86.2483 58.7356C86.0167 59.0541 85.6519 59.2509 85.0612 59.2509H83.4863V54.665H85.0207C85.5998 54.665 86.0514 54.8387 86.2599 55.1514C86.4915 55.4872 86.5609 55.9041 86.5609 56.8827ZM84.9397 58.7066C85.2929 58.7066 85.5882 58.614 85.7387 58.4113C85.9009 58.1913 85.9472 57.7454 85.9472 56.8827C85.9472 56.1589 85.9066 55.7709 85.7387 55.5219C85.5824 55.3077 85.2813 55.215 84.9281 55.215H84.0711V58.7066H84.9397Z" fill="white" fill-opacity="0.75"></path><path d="M92.6703 54.665H93.2262L92.1434 59.2509H91.4543C91.4543 59.2509 90.6842 55.6841 90.6842 55.5335C90.6784 55.6841 89.8909 59.2509 89.8909 59.2509H89.2019L88.1191 54.665H88.7444C88.7444 54.665 89.584 58.2955 89.584 58.4403C89.584 58.2955 90.3541 54.665 90.3541 54.665H91.0432C91.0432 54.665 91.8133 58.3013 91.8133 58.4403C91.8133 58.3013 92.6703 54.665 92.6703 54.665Z" fill="white" fill-opacity="0.75"></path><path d="M94.2506 54.665V59.2509H93.6484V54.665H94.2506Z" fill="white" fill-opacity="0.75"></path><path d="M98.0198 54.665V59.2509H97.3539L95.6457 55.6956V59.2509H95.084V54.665H95.7847L97.4523 58.1681V54.665H98.0198Z" fill="white" fill-opacity="0.75"></path><path d="M101.773 54.665V59.2509H101.107L99.3996 55.6956V59.2509H98.8379V54.665H99.5386L101.206 58.1681V54.665H101.773Z" fill="white" fill-opacity="0.75"></path><path d="M103.196 54.665V59.2509H102.594V54.665H103.196Z" fill="white" fill-opacity="0.75"></path><path d="M106.965 54.665V59.2509H106.299L104.591 55.6956V59.2509H104.029V54.665H104.73L106.398 58.1681V54.665H106.965Z" fill="white" fill-opacity="0.75"></path><path d="M75.0563 68.2893L74.3928 66.2471L73.7292 68.2893H71.582L73.3191 69.5515L72.6556 71.5937L74.3928 70.3315L76.13 71.5937L75.4664 69.5515L77.2036 68.2893H75.0563Z" fill="white" fill-opacity="0.75"></path><path d="M82.7289 68.2898L82.0518 66.2476L81.3747 68.2898H79.1836L80.9563 69.5519L80.2792 71.5941L82.0518 70.332L83.8245 71.5941L83.1474 69.5519L84.92 68.2898H82.7289Z" fill="white" fill-opacity="0.75"></path><path d="M90.3285 68.2898L89.6514 66.2476L88.9743 68.2898H86.7832L88.5558 69.5519L87.8787 71.5941L89.6514 70.332L91.424 71.5941L90.7469 69.5519L92.5196 68.2898H90.3285Z" fill="white" fill-opacity="0.75"></path><path d="M97.9281 68.2898L97.251 66.2476L96.5739 68.2898H94.3828L96.1554 69.5519L95.4783 71.5941L97.251 70.332L99.0236 71.5941L98.3465 69.5519L100.119 68.2898H97.9281Z" fill="white" fill-opacity="0.75"></path><path d="M105.576 68.2898L104.913 66.2476L104.249 68.2898H102.102L103.839 69.5519L103.176 71.5941L104.913 70.332L106.65 71.5941L105.986 69.5519L107.724 68.2898H105.576Z" fill="white" fill-opacity="0.75"></path><path d="M47.3918 43.2706C48.0162 44.2232 48.9824 45.4164 50.3912 45.3824C51.6723 45.4464 52.7791 44.5721 53.6507 43.8424C54.5894 43.0565 55.4367 41.9072 55.7944 40.6647C54.4841 40.2835 53.2296 40.9897 52.2941 41.6558C51.3172 42.3515 50.5659 43.6247 50.4045 44.932C50.3924 43.6223 50.0379 42.2696 49.4664 41.1799C48.9439 40.1837 48.2158 38.8371 46.9168 38.5679C46.405 40.118 46.5683 42.0146 47.3918 43.2706Z" fill="white" fill-opacity="0.75"></path><path d="M50.8079 50.5129C49.5004 50.732 48.225 49.9309 47.3967 48.9886C46.3303 47.7754 45.6958 46.1479 45.8252 44.5186C47.1684 44.5527 48.1857 45.7138 48.9376 46.5918C49.7474 47.5374 50.4109 48.7815 50.7292 50.0649C50.5892 48.7859 51.0186 47.4048 51.8157 46.5514C52.5851 45.7276 53.6629 44.8298 55.0039 44.9739C54.975 46.2708 54.3249 47.5064 53.6544 48.4318C53.0294 49.2942 52.0666 50.3609 50.8079 50.5129Z" fill="white" fill-opacity="0.75"></path><path d="M48.3931 54.822C49.5973 55.606 51.0578 56.382 52.5927 55.7947C53.8519 55.3492 54.6525 54.0817 55.1449 52.9183C55.6665 51.6856 56.0149 50.2642 55.7737 48.915C54.39 49.0378 53.2426 50.0278 52.6332 51.2363C51.9961 52.4997 51.8739 54.0035 52.3633 55.3281C51.6402 53.9654 50.5827 52.8628 49.4625 51.844C48.4442 50.9179 46.9774 49.9423 45.5 50.1258C45.7811 51.9523 46.8957 53.8472 48.3931 54.822Z" fill="white" fill-opacity="0.75"></path><path d="M55.6955 60.733C56.8805 60.0246 57.3574 58.534 57.5523 57.2567C57.7624 55.8792 57.7534 54.36 57.1813 53.0532C55.8065 53.4372 54.8628 54.6746 54.5512 56.0299C54.222 57.4618 54.4998 58.9879 55.3006 60.2071C54.2361 58.9858 52.8206 57.9774 51.4641 57.2703C50.1538 56.5873 48.5463 55.7635 46.9727 56.261C47.7315 58.1129 49.3547 59.8371 51.1537 60.5503C52.5469 61.1025 54.2418 61.6486 55.6955 60.733Z" fill="white" fill-opacity="0.75"></path><path d="M61.3114 61.2121C61.4853 62.5417 61.4804 64.2281 60.4481 65.2515C59.1581 66.5719 57.1617 66.3171 55.6219 66.0266C53.5547 65.6363 51.2277 64.2264 49.9805 62.3491C51.5037 61.5104 53.3666 62.0469 54.8746 62.4812L54.9607 62.5059C56.644 62.9902 58.4378 63.7702 59.938 64.836C58.7408 63.7542 57.8685 62.1664 57.8258 60.566C57.7874 59.1346 58.4087 57.6032 59.7457 56.9209C60.6791 58.146 61.1162 59.7189 61.3114 61.2121Z" fill="white" fill-opacity="0.75"></path><path d="M67.3044 69.0166C68.0646 67.5695 67.3114 65.8711 66.7112 64.6158C66.0016 63.1318 65.0321 61.6194 63.6446 60.5332C62.3123 61.6814 62.439 63.3243 62.8351 64.7521C63.3061 66.4498 64.939 67.897 66.6299 68.7217C64.6716 67.9914 62.5329 67.5531 60.4981 67.4237L60.292 67.4104C58.6573 67.3039 56.5292 67.1653 55.2266 68.3616C57.1961 70.0359 59.9936 71.0019 62.4592 70.9517C64.1115 70.9181 66.3785 70.7226 67.3044 69.0166Z" fill="white" fill-opacity="0.75"></path><path d="M127.475 39.8036C126.998 38.5203 125.954 37.4013 124.818 36.8794C123.763 36.3954 122.362 35.8903 121.131 36.5105C121.801 37.6869 122.904 38.6768 124.031 39.2994C125.044 39.8592 126.327 40.5374 127.597 40.2459C128.981 40.0339 129.65 38.6561 130.022 37.6138C130.537 36.1735 130.185 34.25 129.306 32.8369C128.094 33.342 127.724 34.8406 127.471 35.9009C127.182 37.1078 127.174 38.5166 127.475 39.8036Z" fill="white" fill-opacity="0.75"></path><path d="M126.479 41.6585C127.455 42.3545 128.204 43.627 128.365 44.9334C128.379 43.6244 128.735 42.273 129.307 41.1844C129.83 40.1885 130.56 38.8425 131.859 38.5742C132.369 40.1248 132.204 42.0213 131.379 43.2766C130.755 44.2275 129.789 45.4182 128.383 45.3863C127.1 45.4518 125.992 44.5754 125.12 43.8442C124.182 43.0575 123.336 41.9076 122.98 40.6649C124.29 40.2845 125.544 40.9917 126.479 41.6585Z" fill="white" fill-opacity="0.75"></path><path d="M128.035 50.0733C128.178 48.7932 127.75 47.4092 126.952 46.5541C126.184 45.7297 125.107 44.8311 123.766 44.9742C123.793 46.2711 124.442 47.5073 125.112 48.4332C125.736 49.2957 126.697 50.3624 127.955 50.5161C129.263 50.7376 130.54 49.9369 131.37 48.9947C132.437 47.7824 133.073 46.1554 132.946 44.5259C131.602 44.5591 130.584 45.7193 129.831 46.5967C129.019 47.5429 128.354 48.7884 128.035 50.0733Z" fill="white" fill-opacity="0.75"></path><path d="M126.131 51.2387C126.767 52.5028 126.888 54.0069 126.397 55.3311C127.121 53.9686 128.18 52.8667 129.301 51.8486C130.32 50.9232 131.788 49.9489 133.265 50.1334C132.983 51.9598 131.866 53.8539 130.368 54.8275C129.164 55.6095 127.705 56.3839 126.172 55.799C124.911 55.3543 124.11 54.0842 123.618 52.9188C123.097 51.6857 122.75 50.2641 122.993 48.915C124.376 49.0389 125.523 50.0298 126.131 51.2387Z" fill="white" fill-opacity="0.75"></path><path d="M123.459 60.2047C124.259 58.9867 124.538 57.4621 124.211 56.0309C123.901 54.6753 122.958 53.4372 121.583 53.0522C121.01 54.3584 121 55.8775 121.208 57.2553C121.402 58.5301 121.876 60.0177 123.054 60.7287C124.509 61.6515 126.208 61.1057 127.603 60.5537C129.403 59.8418 131.028 58.1188 131.788 56.2673C130.215 55.7688 128.607 56.5914 127.296 57.2734C125.94 57.9791 124.524 58.9854 123.459 60.2047Z" fill="white" fill-opacity="0.75"></path><path d="M117.442 61.2082C117.267 62.5375 117.27 64.2238 118.302 65.2481C119.59 66.5695 121.587 66.3161 123.127 66.0266C125.195 65.6379 127.523 64.2295 128.772 62.3533C127.25 61.5136 125.386 62.0485 123.878 62.4816L123.791 62.5064C122.108 62.9892 120.314 63.7676 118.813 64.8318C120.011 63.7509 120.884 62.1644 120.928 60.5646C120.968 59.1333 120.348 57.6014 119.012 56.918C118.077 58.1424 117.639 59.7151 117.442 61.2082Z" fill="white" fill-opacity="0.75"></path><path d="M116.288 70.9465C114.636 70.9116 112.369 70.7145 111.445 69.0077L111.432 68.9843C110.694 67.5416 111.444 65.8554 112.042 64.6075C112.753 63.124 113.724 61.6123 115.112 60.5273C116.444 61.6764 116.315 63.3192 115.918 64.7466C115.445 66.444 113.811 67.8902 112.119 68.7135C114.078 67.9847 116.217 67.548 118.252 67.42L118.459 67.4068C120.094 67.3016 122.222 67.1648 123.523 68.3618C121.552 70.0344 118.754 70.9985 116.288 70.9465Z" fill="white" fill-opacity="0.75"></path></svg>