<svg xmlns="http://www.w3.org/2000/svg" width="126" height="45" viewBox="0 0 126 45" fill="none"><g clip-path="url(#clip0_2868_604)"><path fill-rule="evenodd" clip-rule="evenodd" d="M115.66 27.9122C114.355 28.0213 113.016 27.5403 112.072 26.4918L108.969 23.0463C107.908 21.868 107.092 20.5111 106.548 19.0537C106.488 19.0771 106.427 19.1022 106.368 19.1288C106.765 20.4264 107.376 21.6618 108.189 22.7804L110.914 26.5313C111.926 27.9243 113.632 28.5152 115.213 28.1745C115.281 28.1401 115.348 28.1037 115.415 28.0652C115.499 28.0166 115.581 27.9656 115.66 27.9122ZM115.867 27.7643C114.532 27.9457 113.134 27.4851 112.164 26.4084L109.062 22.963C108.012 21.7965 107.204 20.4534 106.665 19.0108C106.717 18.9929 106.768 18.9761 106.82 18.9605C107.525 20.5379 108.557 21.9672 109.866 23.1457L113.311 26.2481C114.17 27.0212 115.253 27.3881 116.323 27.3611C116.183 27.5049 116.03 27.6398 115.867 27.7643ZM115.916 27.8832C115.843 27.9381 115.768 27.991 115.691 28.0417C115.858 27.9843 116.023 27.9158 116.184 27.8361C116.095 27.8546 116.006 27.8703 115.916 27.8832ZM116.612 27.5932C116.449 27.6465 116.284 27.6896 116.118 27.7225C116.255 27.6064 116.383 27.4829 116.503 27.3529C116.679 27.3412 116.855 27.3187 117.029 27.2856C116.955 27.3471 116.879 27.4064 116.801 27.4636C116.738 27.5087 116.675 27.5519 116.612 27.5932ZM116.666 27.7065C116.223 27.9913 115.745 28.1855 115.255 28.2929C113.217 29.3193 110.706 28.5869 109.55 26.585L107.232 22.5698C106.646 21.5552 106.212 20.473 105.932 19.3564L102.666 21.242C100.591 22.4401 97.938 21.7291 96.7399 19.6539C96.4309 19.1187 96.2489 18.5451 96.1845 17.9678C95.9982 17.4754 95.9077 16.9678 95.9044 16.4667C95.7706 15.9573 95.7336 15.4429 95.7828 14.9441C95.703 14.4241 95.7198 13.9092 95.8207 13.4187C95.7955 12.8925 95.8661 12.3814 96.018 11.9035C96.048 11.3775 96.1718 10.8766 96.3729 10.4172C96.4578 9.89746 96.6332 9.41247 96.8811 8.97681C97.0198 8.46895 97.2449 8.00507 97.5368 7.59778C97.7278 7.10731 98 6.66956 98.3328 6.29506C98.5741 5.82697 98.8907 5.41988 99.261 5.08207C99.5499 4.64185 99.9073 4.27014 100.31 3.97293C100.644 3.56529 101.038 3.23294 101.47 2.97953C101.845 2.609 102.271 2.31973 102.728 2.11292C103.139 1.78354 103.594 1.54049 104.069 1.38254C104.512 1.09791 104.99 0.90372 105.479 0.796346C107.518 -0.230278 110.029 0.50206 111.185 2.50406L113.117 5.85182C113.841 7.10445 114.334 8.46008 114.588 9.85632L118.07 7.84637C120.145 6.64827 122.798 7.35927 123.997 9.43444C124.305 9.96931 124.487 10.5426 124.552 11.1195C124.738 11.6121 124.829 12.1198 124.832 12.6211C124.966 13.1303 125.003 13.6446 124.954 14.1434C125.034 14.6644 125.017 15.1803 124.916 15.6716C124.941 16.1974 124.87 16.708 124.718 17.1854C124.688 17.7108 124.565 18.2112 124.364 18.6702C124.279 19.1899 124.104 19.6749 123.856 20.1105C123.717 20.6186 123.492 21.0827 123.2 21.4902C123.009 21.9811 122.737 22.4192 122.403 22.794C122.162 23.262 121.845 23.669 121.475 24.0067C121.186 24.447 120.829 24.8187 120.425 25.116C120.092 25.5236 119.697 25.8559 119.265 26.1093C118.891 26.4799 118.464 26.7692 118.007 26.976C117.596 27.3055 117.142 27.5486 116.666 27.7065ZM117.542 27.1552C117.39 27.2513 117.233 27.3367 117.072 27.4113C117.144 27.3527 117.213 27.2922 117.28 27.23C117.368 27.2078 117.455 27.1829 117.542 27.1552ZM118.381 26.64C118.532 26.549 118.679 26.4477 118.821 26.3362C118.738 26.3728 118.654 26.4067 118.569 26.4379C118.508 26.5068 118.446 26.5742 118.381 26.64ZM118.324 26.5195C118.258 26.5883 118.188 26.6553 118.116 26.7203C118.059 26.7717 118.001 26.8212 117.942 26.8689C117.786 26.9389 117.626 26.999 117.464 27.0492C117.588 26.9194 117.703 26.7832 117.808 26.6414C117.982 26.6113 118.155 26.5706 118.324 26.5195ZM118.732 26.2389C118.888 26.1721 119.041 26.0956 119.189 26.0097C119.242 25.956 119.295 25.9007 119.346 25.8436C119.411 25.7714 119.473 25.6975 119.532 25.6222C119.369 25.6908 119.202 25.7493 119.032 25.7975C118.942 25.9494 118.842 26.0969 118.732 26.2389ZM118.858 25.8428C118.75 26.0126 118.629 26.1761 118.496 26.3319C118.305 26.4003 118.11 26.4548 117.912 26.4951C118.032 26.3188 118.138 26.135 118.229 25.9452C118.441 25.9265 118.651 25.8921 118.858 25.8428ZM119.12 25.6411C119.312 25.5803 119.501 25.5057 119.683 25.4177C119.8 25.2487 119.903 25.0735 119.993 24.8933C119.792 24.964 119.587 25.0201 119.378 25.0609C119.307 25.2592 119.221 25.4532 119.12 25.6411ZM119.236 25.0863C119.157 25.2937 119.062 25.496 118.95 25.6909C118.734 25.7493 118.513 25.7906 118.29 25.8142C118.387 25.5962 118.465 25.3711 118.524 25.1415C118.764 25.1428 119.002 25.1241 119.236 25.0863ZM119.284 24.9517C119.363 24.7198 119.422 24.4822 119.459 24.2417C119.195 24.2601 118.928 24.2544 118.659 24.223C118.649 24.4904 118.613 24.7563 118.554 25.017C118.8 25.0166 119.045 24.9944 119.284 24.9517ZM119.425 24.9243C119.498 24.6973 119.552 24.4654 119.587 24.2309C119.825 24.2071 120.06 24.1636 120.289 24.1015C120.233 24.316 120.159 24.5271 120.068 24.7327C119.859 24.8133 119.644 24.8775 119.425 24.9243ZM120.161 24.8301C120.087 24.9906 120.003 25.1477 119.909 25.3005C120.057 25.2177 120.201 25.1258 120.339 25.0249C120.387 24.9659 120.433 24.9053 120.478 24.8432C120.535 24.7645 120.589 24.6846 120.64 24.6035C120.485 24.6887 120.325 24.7644 120.161 24.8301ZM120.769 24.3843C120.597 24.4908 120.417 24.5847 120.232 24.6653C120.313 24.4679 120.378 24.2661 120.428 24.0614C120.632 23.999 120.83 23.9218 121.022 23.8306C120.952 24.0191 120.867 24.2041 120.769 24.3843ZM120.862 24.4729C120.818 24.5528 120.771 24.6317 120.72 24.7096C120.85 24.5891 120.973 24.4594 121.088 24.3209C121.014 24.374 120.939 24.4247 120.862 24.4729ZM121.38 23.9251C121.253 24.0399 121.12 24.1464 120.981 24.2442C121.059 24.0825 121.126 23.9174 121.182 23.7501C121.339 23.6677 121.49 23.5757 121.636 23.4747C121.593 23.5606 121.548 23.6457 121.499 23.7299C121.461 23.7964 121.421 23.8615 121.38 23.9251ZM121.726 23.5718C121.843 23.4384 121.951 23.2966 122.051 23.1469C121.983 23.2074 121.914 23.2656 121.843 23.3216C121.807 23.4057 121.768 23.4891 121.726 23.5718ZM121.937 23.0818C121.997 22.9127 122.047 22.7416 122.085 22.5692C122.232 22.4708 122.373 22.3635 122.507 22.2478C122.475 22.3377 122.438 22.4271 122.399 22.5159C122.367 22.5861 122.335 22.6551 122.3 22.7228C122.186 22.8502 122.064 22.97 121.937 23.0818ZM121.741 23.2433C121.82 23.0537 121.884 22.8608 121.934 22.6661C121.753 22.7768 121.564 22.8743 121.368 22.9577C121.339 23.1665 121.296 23.3741 121.236 23.5788C121.412 23.4793 121.58 23.3672 121.741 23.2433ZM121.08 23.663C121.149 23.449 121.2 23.2313 121.234 23.012C121.013 23.0977 120.784 23.1655 120.549 23.2141C120.539 23.451 120.509 23.6873 120.46 23.9206C120.673 23.8512 120.881 23.765 121.08 23.663ZM120.324 23.9626C120.378 23.7238 120.411 23.4813 120.423 23.2382C120.163 23.2842 119.896 23.3065 119.625 23.3033C119.643 23.5703 119.636 23.8384 119.604 24.1039C119.849 24.0777 120.089 24.0302 120.324 23.9626ZM119.477 24.1155C119.511 23.8452 119.519 23.5721 119.5 23.3001C119.258 23.2902 119.014 23.26 118.769 23.2079L118.571 23.1659C118.636 23.4741 118.666 23.7866 118.662 24.098C118.936 24.1307 119.209 24.136 119.477 24.1155ZM118.538 24.0812C118.54 23.7658 118.507 23.4491 118.438 23.1375L117.379 22.9123C117.491 23.2162 117.568 23.5273 117.609 23.84L117.856 23.9202C118.082 23.9937 118.31 24.047 118.538 24.0812ZM117.478 23.7972C117.432 23.488 117.351 23.1809 117.233 22.8815L114.234 22.244C111.826 21.732 109.641 20.5246 107.937 18.7977C107.924 18.7976 107.911 18.7976 107.898 18.7977C109.363 20.4979 111.277 21.7824 113.447 22.4875L117.478 23.7972ZM107.738 18.8021C109.226 20.5576 111.184 21.8832 113.408 22.6059L117.495 23.934C117.532 24.2512 117.532 24.5696 117.496 24.883C117.273 24.8253 117.052 24.7484 116.835 24.6516L112.599 22.7659C110.625 21.8869 108.934 20.5151 107.674 18.8058C107.695 18.8044 107.717 18.8032 107.738 18.8021ZM107.794 18.6752C107.802 18.6749 107.81 18.6747 107.818 18.6745C107.777 18.6318 107.736 18.5889 107.696 18.5456C107.692 18.5451 107.689 18.5445 107.685 18.544C107.721 18.588 107.757 18.6317 107.794 18.6752ZM107.506 18.5202C107.55 18.575 107.594 18.6294 107.639 18.6834C107.622 18.6846 107.605 18.6859 107.588 18.6874C107.547 18.6306 107.507 18.5736 107.467 18.5161C107.48 18.5174 107.493 18.5188 107.506 18.5202ZM108.118 18.8026C109.791 20.463 111.919 21.6244 114.26 22.1221L117.176 22.7419C117.112 22.5951 117.039 22.4505 116.957 22.3086L116.769 21.9818L115.018 21.7977C112.451 21.528 110.05 20.473 108.128 18.8031C108.125 18.803 108.122 18.8028 108.118 18.8026ZM108.502 18.9546C110.353 20.4657 112.618 21.4203 115.031 21.6739L116.692 21.8484L116.359 21.272H115.75C113.135 21.272 110.604 20.4521 108.502 18.9546ZM116.503 21.272L116.845 21.8645L117.995 21.9854C117.917 21.8461 117.829 21.7098 117.733 21.5773L117.511 21.272H116.503ZM117.421 21.1475H116.431L116.171 20.6966C116.255 20.6894 116.34 20.6814 116.424 20.6725L117.029 20.6089L117.421 21.1475ZM117.665 21.272L117.834 21.5041C117.95 21.6649 118.055 21.831 118.146 22.0013L119.246 22.1169C119.137 21.8241 118.994 21.5405 118.817 21.272H117.665ZM118.732 21.1475H117.575L117.172 20.5939L118.175 20.4885L118.428 20.7688C118.537 20.8906 118.639 21.0171 118.732 21.1475ZM118.965 21.272C119.139 21.5459 119.278 21.8342 119.384 22.1314L119.642 22.1585C119.878 22.1834 120.113 22.1881 120.342 22.1742C120.279 21.8653 120.181 21.5624 120.049 21.272H118.965ZM119.989 21.1475H118.883C118.774 20.9876 118.653 20.8332 118.52 20.6855L118.328 20.4724L119.474 20.352C119.678 20.6005 119.85 20.8676 119.989 21.1475ZM120.185 21.272C120.312 21.5601 120.406 21.8596 120.468 22.1647C120.742 22.1398 121.01 22.0883 121.268 22.0124C121.245 21.741 121.196 21.4722 121.122 21.2101C120.883 21.2508 120.637 21.272 120.387 21.272H120.185ZM121.085 21.0898C120.858 21.1277 120.625 21.1475 120.387 21.1475H120.128C119.992 20.863 119.823 20.5907 119.622 20.3365L120.699 20.2232C120.861 20.4982 120.99 20.7892 121.085 21.0898ZM121.245 21.1872C121.317 21.4448 121.366 21.7084 121.39 21.9746C121.624 21.8982 121.849 21.8016 122.064 21.6869C122.068 21.4419 122.05 21.1979 122.011 20.9576C121.766 21.0567 121.51 21.1341 121.245 21.1872ZM121.989 20.8321C121.74 20.9346 121.479 21.0139 121.209 21.0673C121.116 20.7702 120.991 20.4822 120.835 20.209L121.035 20.1879C121.284 20.1617 121.526 20.1149 121.76 20.0495C121.861 20.3024 121.938 20.5646 121.989 20.8321ZM122.129 20.9079C122.169 21.1417 122.189 21.379 122.189 21.6174C122.383 21.5051 122.568 21.3776 122.742 21.2364C122.765 21.0127 122.77 20.7891 122.757 20.5676C122.559 20.6975 122.349 20.8115 122.129 20.9079ZM122.747 20.425C122.545 20.5617 122.331 20.6813 122.106 20.7818C122.054 20.5196 121.978 20.2624 121.879 20.0139C122.138 19.9333 122.385 19.8296 122.618 19.7053C122.682 19.9403 122.725 20.1811 122.747 20.425ZM122.877 20.4866C122.893 20.6968 122.893 20.9089 122.877 21.1216C123.028 20.9876 123.17 20.8428 123.301 20.6881C123.339 20.4863 123.362 20.2843 123.37 20.0835C123.216 20.2295 123.051 20.3643 122.877 20.4866ZM123.374 19.9061C123.216 20.0647 123.045 20.2108 122.864 20.3428C122.839 20.1058 122.794 19.8719 122.73 19.6435C122.939 19.5247 123.135 19.3894 123.319 19.2395C123.355 19.4584 123.373 19.6812 123.374 19.9061ZM123.498 19.9573C123.496 20.1338 123.483 20.3114 123.459 20.4893C123.561 20.3534 123.655 20.2109 123.74 20.0625C123.76 19.9893 123.778 19.9152 123.793 19.8402C123.814 19.745 123.831 19.6499 123.844 19.555C123.737 19.6961 123.621 19.8304 123.498 19.9573ZM123.872 19.3025C123.758 19.4699 123.633 19.6287 123.496 19.7777C123.49 19.5647 123.467 19.3537 123.43 19.1464C123.59 19.0066 123.74 18.8553 123.878 18.6941C123.891 18.8946 123.889 19.0978 123.872 19.3025ZM123.994 19.3454C123.986 19.4364 123.975 19.5277 123.96 19.6191C124.03 19.4564 124.089 19.2881 124.138 19.1149C124.092 19.1933 124.044 19.2702 123.994 19.3454ZM124.243 18.6346C124.174 18.791 124.096 18.9424 124.009 19.0882C124.014 18.9088 124.009 18.7309 123.992 18.5552C124.101 18.4163 124.202 18.2707 124.294 18.1193C124.29 18.215 124.284 18.3112 124.273 18.4079C124.265 18.4842 124.255 18.5597 124.243 18.6346ZM124.416 18.1705C124.468 18.0017 124.51 17.8283 124.54 17.6512C124.503 17.7338 124.463 17.8152 124.421 17.8951C124.422 17.9864 124.421 18.0782 124.416 18.1705ZM124.409 17.6377C124.48 17.4838 124.542 17.3252 124.595 17.1625C124.599 17.0866 124.601 17.0102 124.601 16.9333C124.601 16.8363 124.598 16.7401 124.591 16.6447C124.516 16.8048 124.431 16.96 124.337 17.1095C124.371 17.2825 124.396 17.4588 124.409 17.6377ZM124.297 16.9343C124.4 16.7604 124.49 16.5791 124.566 16.3918C124.54 16.188 124.5 15.9887 124.445 15.7951C124.344 15.9814 124.229 16.1603 124.101 16.3304C124.181 16.5254 124.247 16.7272 124.297 16.9343ZM124.013 16.4444C124.093 16.6511 124.157 16.8654 124.204 17.0853C124.083 17.2731 123.947 17.4513 123.797 17.618C123.723 17.3914 123.63 17.172 123.521 16.9617C123.699 16.8023 123.864 16.6291 124.013 16.4444ZM124.044 16.1976C124.176 16.0162 124.293 15.8247 124.394 15.6252C124.324 15.4114 124.238 15.2051 124.136 15.0079C124.008 15.2072 123.862 15.3966 123.701 15.5738C123.832 15.7714 123.947 15.98 124.044 16.1976ZM123.614 15.6673C123.746 15.8711 123.862 16.0868 123.958 16.3119C123.809 16.5041 123.642 16.684 123.46 16.8489C123.329 16.6156 123.178 16.3945 123.007 16.1887C123.227 16.0324 123.43 15.8575 123.614 15.6673ZM123.629 15.468C123.793 15.2849 123.94 15.0886 124.069 14.8818C123.949 14.6679 123.812 14.4655 123.658 14.2767C123.495 14.4851 123.312 14.6802 123.109 14.8587C123.301 15.0455 123.475 15.2495 123.629 15.468ZM123.014 14.94C123.21 15.1298 123.387 15.338 123.542 15.5616C123.357 15.7564 123.15 15.9349 122.925 16.0937C122.72 15.8601 122.488 15.6479 122.234 15.4618L122.409 15.3612C122.625 15.236 122.828 15.0948 123.014 14.94ZM123.018 14.7727C123.226 14.5913 123.412 14.3922 123.576 14.179C122.804 13.2849 121.661 12.7192 120.387 12.7192H115.75C115.421 12.7192 115.096 12.6779 114.782 12.5983C114.778 12.6847 114.774 12.7712 114.769 12.8576C115.132 13.0197 115.522 13.1255 115.925 13.1679L120.536 13.6525C121.5 13.7538 122.356 14.1633 123.018 14.7727ZM114.76 12.9898C115.123 13.1468 115.511 13.2496 115.912 13.2917L120.523 13.7764C121.453 13.8742 122.281 14.2678 122.923 14.8539C122.745 15.0005 122.552 15.1343 122.346 15.2534L122.122 15.3826C121.668 15.0712 121.146 14.8418 120.573 14.7201L116.038 13.7562C115.572 13.657 115.133 13.4725 114.742 13.2163C114.748 13.1408 114.754 13.0653 114.76 12.9898ZM114.647 12.8008C114.652 12.7222 114.655 12.6435 114.658 12.5649C114.63 12.5567 114.601 12.5482 114.573 12.5393C114.576 12.615 114.578 12.6907 114.579 12.7665C114.601 12.7782 114.624 12.7896 114.647 12.8008ZM114.58 12.9067C114.6 12.9163 114.619 12.9257 114.639 12.935C114.634 13.002 114.629 13.0689 114.623 13.1359C114.609 13.1254 114.594 13.1148 114.579 13.104C114.58 13.0382 114.58 12.9724 114.58 12.9067ZM114.453 12.6989C114.451 12.6317 114.45 12.5646 114.447 12.4975C114.427 12.4903 114.406 12.483 114.386 12.4755C114.393 12.5409 114.4 12.6064 114.406 12.6719C114.421 12.681 114.437 12.69 114.453 12.6989ZM114.419 12.8225C114.431 12.8291 114.443 12.8357 114.455 12.8422C114.456 12.898 114.456 12.9538 114.455 13.0096C114.447 13.0032 114.439 12.9967 114.431 12.9902C114.427 12.9343 114.423 12.8783 114.419 12.8225ZM114.273 12.591C114.267 12.5354 114.261 12.4799 114.255 12.4245C114.242 12.4193 114.23 12.4141 114.217 12.4087C114.227 12.4639 114.237 12.5191 114.247 12.5744C114.255 12.5799 114.264 12.5855 114.273 12.591ZM114.274 12.7387C114.279 12.7413 114.283 12.744 114.287 12.7466C114.291 12.7902 114.295 12.8339 114.298 12.8775L114.295 12.8749C114.289 12.8295 114.282 12.784 114.274 12.7387ZM114.103 12.4762C114.095 12.4331 114.087 12.3901 114.078 12.3471C114.074 12.3449 114.069 12.3426 114.064 12.3404C114.076 12.3848 114.088 12.4293 114.099 12.4738L114.103 12.4762ZM114.02 12.1799C114.029 12.1846 114.038 12.1892 114.047 12.1938C114.036 12.1391 114.024 12.0844 114.012 12.0298C113.999 12.026 113.986 12.0221 113.973 12.0181C113.989 12.0719 114.004 12.1258 114.02 12.1799ZM113.828 11.9712C113.841 12.0132 113.854 12.0552 113.866 12.0974L113.863 12.0954C113.847 12.0522 113.83 12.0091 113.814 11.9661C113.819 11.9678 113.823 11.9695 113.828 11.9712ZM113.929 11.8735C113.946 11.8792 113.963 11.8847 113.98 11.8901C113.965 11.8246 113.949 11.7592 113.933 11.694C113.911 11.6912 113.89 11.6883 113.868 11.6852C113.889 11.7478 113.909 11.8106 113.929 11.8735ZM113.729 11.6625C113.747 11.7156 113.765 11.7687 113.782 11.822C113.772 11.8184 113.762 11.8148 113.753 11.8111C113.732 11.7589 113.711 11.7068 113.689 11.6549C113.702 11.6575 113.716 11.6601 113.729 11.6625ZM113.824 11.5523C113.849 11.5564 113.874 11.5602 113.899 11.5638C113.879 11.4876 113.858 11.4116 113.837 11.3359C113.807 11.3369 113.778 11.3375 113.748 11.3378C113.774 11.4091 113.799 11.4806 113.824 11.5523ZM113.615 11.3371C113.638 11.4001 113.661 11.4634 113.683 11.5269C113.665 11.5233 113.648 11.5196 113.63 11.5158C113.604 11.4553 113.577 11.3951 113.55 11.335C113.572 11.3359 113.594 11.3366 113.615 11.3371ZM113.702 11.2135C113.735 11.2135 113.768 11.2131 113.801 11.2123C113.775 11.1247 113.748 11.0373 113.721 10.9503C113.683 10.9578 113.646 10.9648 113.609 10.9712C113.641 11.0516 113.672 11.1324 113.702 11.2135ZM113.482 10.9909C113.512 11.064 113.54 11.1374 113.568 11.2111C113.543 11.2102 113.517 11.209 113.492 11.2076C113.46 11.1388 113.428 11.0703 113.395 11.0021C113.424 10.9987 113.453 10.995 113.482 10.9909ZM113.561 10.853C113.601 10.8463 113.642 10.839 113.682 10.8311C113.649 10.7306 113.614 10.6306 113.578 10.5311C113.534 10.5483 113.49 10.5647 113.445 10.5803C113.485 10.6707 113.523 10.7616 113.561 10.853ZM113.327 10.6196C113.363 10.7032 113.399 10.7873 113.434 10.8718C113.401 10.876 113.369 10.8798 113.336 10.8833C113.297 10.8058 113.258 10.7287 113.218 10.6521C113.254 10.6418 113.29 10.631 113.327 10.6196ZM113.395 10.466C113.442 10.4497 113.489 10.4323 113.536 10.4141C112.847 8.55497 111.714 6.87106 110.214 5.51994L107.341 2.9333C106.473 2.15228 105.371 1.79808 104.291 1.85718C104.14 2.02447 104.005 2.2024 103.885 2.38889C104.698 2.42907 105.509 2.69827 106.217 3.21252L109.344 5.48471C111.121 6.77523 112.509 8.49821 113.395 10.466ZM103.809 2.51046C104.622 2.53729 105.436 2.79923 106.144 3.31329L109.271 5.58547C111.026 6.86049 112.399 8.56188 113.276 10.5051C113.236 10.5172 113.197 10.5287 113.158 10.5395C112.067 8.51352 110.428 6.81049 108.403 5.64129L105.055 3.70846C104.558 3.42117 104.027 3.24366 103.491 3.16839C103.577 2.94104 103.684 2.72079 103.809 2.51046ZM103.74 2.38416C103.851 2.20509 103.976 2.03333 104.114 1.87058C103.913 1.89004 103.713 1.92386 103.516 1.97196C103.367 2.11285 103.23 2.26284 103.105 2.42042C103.315 2.39291 103.528 2.38073 103.74 2.38416ZM102.998 2.5619C103.219 2.52639 103.442 2.50836 103.666 2.50817C103.548 2.71485 103.447 2.93044 103.364 3.15247C103.125 3.12622 102.887 3.11998 102.65 3.13311C102.75 2.93509 102.866 2.74398 102.998 2.5619ZM102.927 2.44739C103.033 2.30569 103.147 2.16949 103.271 2.03975C103.109 2.0899 102.95 2.15 102.794 2.22C102.735 2.26773 102.676 2.31731 102.619 2.36874C102.547 2.43372 102.478 2.50063 102.411 2.56932C102.581 2.5182 102.753 2.4775 102.927 2.44739ZM102.24 2.757C102.43 2.6886 102.625 2.63409 102.823 2.59373C102.703 2.76997 102.597 2.95381 102.506 3.1435C102.294 3.16233 102.084 3.19666 101.877 3.24601C101.985 3.07625 102.106 2.91275 102.24 2.757ZM102.167 2.65097C102.227 2.58213 102.289 2.51479 102.354 2.44909C102.203 2.54 102.056 2.64119 101.915 2.75261C101.998 2.71606 102.082 2.68217 102.167 2.65097ZM101.547 3.07917C101.695 2.99327 101.847 2.91684 102.003 2.85003C101.893 2.99203 101.793 3.13948 101.703 3.2914C101.533 3.33956 101.366 3.39804 101.203 3.46659C101.262 3.39126 101.324 3.31742 101.389 3.24521C101.441 3.18813 101.493 3.13278 101.547 3.07917ZM101.134 3.35284C100.993 3.45914 100.857 3.57518 100.728 3.70082C100.807 3.65576 100.887 3.61325 100.969 3.57332C101.021 3.49855 101.076 3.42501 101.134 3.35284ZM100.827 3.78838C100.678 3.87115 100.535 3.96311 100.397 4.06403C100.349 4.12295 100.302 4.18348 100.257 4.2456C100.2 4.32419 100.146 4.4041 100.095 4.48517C100.251 4.39991 100.411 4.32425 100.575 4.25857C100.648 4.09811 100.732 3.94105 100.827 3.78838ZM100.504 4.42335C100.318 4.50396 100.139 4.59784 99.9671 4.70439C99.8685 4.88457 99.7844 5.06962 99.7145 5.25803C99.9061 5.16685 100.104 5.08959 100.307 5.02711C100.358 4.82251 100.423 4.62067 100.504 4.42335ZM100.446 4.98699C100.503 4.77253 100.576 4.56146 100.668 4.35593C100.876 4.27529 101.091 4.21116 101.31 4.16436C101.237 4.3912 101.183 4.62309 101.148 4.8575C100.91 4.88135 100.675 4.9249 100.446 4.98699ZM100.275 5.16792C100.062 5.2374 99.8553 5.32368 99.6563 5.42571C99.587 5.63964 99.5357 5.85725 99.5019 6.07643C99.7231 5.99074 99.9521 5.92288 100.186 5.87424C100.197 5.63746 100.226 5.40117 100.275 5.16792ZM100.312 5.8501C100.324 5.60707 100.358 5.3647 100.412 5.1259C100.646 5.05831 100.887 5.01074 101.131 4.98452C101.099 5.2499 101.092 5.51789 101.11 5.78482C100.839 5.78177 100.573 5.80414 100.312 5.8501ZM100.183 6.00235C99.9425 6.05399 99.7081 6.12645 99.4825 6.21815C99.4534 6.46134 99.4457 6.70588 99.4589 6.94887C99.7131 6.87594 99.9761 6.82581 100.245 6.80062C100.2 6.53693 100.179 6.26962 100.183 6.00235ZM100.37 6.79077C100.323 6.52224 100.302 6.24977 100.308 5.97749C100.572 5.92902 100.844 5.90568 101.119 5.90953C101.149 6.21943 101.211 6.52713 101.307 6.82689L101.107 6.80591C100.858 6.77971 100.612 6.77517 100.37 6.79077ZM100.268 6.92361C99.9938 6.94855 99.726 7.00016 99.4677 7.07604C99.4907 7.34742 99.5398 7.61623 99.6143 7.87841C99.8533 7.83762 100.099 7.81638 100.349 7.81638L100.55 7.81637C100.423 7.52829 100.329 7.22879 100.268 6.92361ZM100.687 7.81637C100.554 7.52594 100.456 7.22308 100.393 6.91412C100.623 6.90013 100.857 6.90488 101.094 6.92978L101.351 6.95674C101.457 7.25398 101.596 7.54244 101.769 7.81637H100.687ZM100.607 7.94093H100.349C100.111 7.94093 99.8778 7.96069 99.6505 7.99864C99.7457 8.29926 99.8749 8.59019 100.037 8.86516L101.113 8.75197C100.912 8.4977 100.744 8.22544 100.607 7.94093ZM101.261 8.73647C101.057 8.48794 100.885 8.22079 100.746 7.94093H101.851C101.96 8.101 102.082 8.25564 102.215 8.40362L102.406 8.61611L101.261 8.73647ZM101.208 8.86729L100.109 8.98283C100.276 9.24663 100.475 9.49436 100.704 9.72017L101.83 9.48071L101.618 9.28931C101.47 9.15611 101.333 9.01503 101.208 8.86729ZM101.981 9.4487L101.701 9.19675C101.579 9.08691 101.465 8.97156 101.359 8.85142L102.509 8.73053L102.967 9.23911C102.962 9.24026 102.956 9.24141 102.951 9.24256L101.981 9.4487ZM101.945 9.58373L100.813 9.82425C100.931 9.93264 101.057 10.0354 101.19 10.1319L101.494 10.3533L102.437 10.047C102.443 10.0452 102.448 10.0435 102.453 10.0417L101.945 9.58373ZM102.591 9.99806L102.095 9.55172L102.977 9.36439C103.006 9.35824 103.035 9.35221 103.064 9.34626L103.442 9.7663C103.156 9.83332 102.873 9.91056 102.591 9.99806ZM102.561 10.1382C102.532 10.1472 102.504 10.1562 102.476 10.1654L101.619 10.4438L102.159 10.8359C102.43 10.7194 102.704 10.6129 102.981 10.5164L102.561 10.1382ZM103.115 10.4703L102.699 10.0952C102.976 10.0108 103.256 9.93644 103.537 9.87208L103.871 10.2429C103.617 10.3105 103.365 10.3864 103.115 10.4703ZM103.086 10.6116C102.814 10.7051 102.543 10.8082 102.276 10.9212L102.729 11.2507C102.969 11.1411 103.212 11.0393 103.457 10.9455L103.086 10.6116ZM103.588 10.8961L103.222 10.5661C103.468 10.4852 103.715 10.4121 103.965 10.347L104.256 10.6705C104.032 10.7393 103.809 10.8145 103.588 10.8961ZM103.561 11.0392C103.32 11.1301 103.081 11.2287 102.845 11.3349L104.317 12.4041C104.972 12.8803 105.46 13.543 105.723 14.2977C105.725 14.2882 105.726 14.2786 105.728 14.2691C105.62 13.3504 105.182 12.4987 104.491 11.876L103.561 11.0392ZM105.68 14.5787C105.451 13.7487 104.947 13.0159 104.244 12.5049L102.715 11.3943C102.454 11.5157 102.196 11.6466 101.942 11.7869L104.127 13.0483C104.791 13.4321 105.324 13.9982 105.668 14.6716C105.672 14.6406 105.676 14.6096 105.68 14.5787ZM105.639 14.9007C105.313 14.1727 104.764 13.5602 104.064 13.1562L101.815 11.8577C101.789 11.8724 101.763 11.8873 101.738 11.9022L100.958 12.3523L104.005 13.7088C104.66 14.0006 105.218 14.463 105.624 15.0399C105.629 14.9934 105.634 14.9471 105.639 14.9007ZM105.606 15.2348C105.206 14.6187 104.635 14.1257 103.954 13.8225L100.825 12.4293L99.8233 13.0077C99.9691 13.0742 100.12 13.1332 100.276 13.1839L103.952 14.3784C104.582 14.5829 105.143 14.9404 105.591 15.4115C105.596 15.3526 105.6 15.2937 105.606 15.2348ZM105.58 15.5829C105.134 15.0843 104.561 14.7071 103.914 14.4969L100.237 13.3023C100.048 13.2408 99.8663 13.1675 99.6918 13.0836L98.7345 13.6363C99.1642 13.9217 99.654 14.1324 100.189 14.2462L103.97 15.0499C104.558 15.1749 105.104 15.4312 105.569 15.793C105.572 15.723 105.576 15.653 105.58 15.5829ZM105.69 15.8908C105.692 15.8341 105.695 15.7773 105.697 15.7205C105.699 15.7232 105.702 15.7258 105.704 15.7284C105.705 15.7876 105.706 15.8468 105.708 15.906C105.702 15.9009 105.696 15.8959 105.69 15.8908ZM105.564 15.9478C105.098 15.5675 104.544 15.2992 103.944 15.1718L100.163 14.3681C99.5909 14.2464 99.069 14.017 98.6144 13.7056L98.3902 13.835C98.1841 13.9541 97.9918 14.0879 97.8139 14.2344C98.4554 14.8205 99.2832 15.2141 100.213 15.3119L104.058 15.716C104.59 15.7719 105.1 15.9349 105.559 16.1896C105.56 16.109 105.561 16.0284 105.564 15.9478ZM105.683 16.2614C105.683 16.1915 105.684 16.1215 105.686 16.0516C105.695 16.0602 105.705 16.0689 105.715 16.0776C105.718 16.1478 105.722 16.2179 105.726 16.2879C105.712 16.279 105.697 16.2702 105.683 16.2614ZM105.558 16.3324C105.098 16.0663 104.583 15.8965 104.045 15.8399L100.2 15.4358C99.237 15.3345 98.3803 14.925 97.7182 14.3156C97.5108 14.4971 97.3245 14.6963 97.16 14.9095C97.9328 15.8035 99.0751 16.3693 100.349 16.3692H104.215C104.678 16.3692 105.134 16.4509 105.561 16.6063C105.559 16.5151 105.558 16.4238 105.558 16.3324ZM105.687 16.6545C105.685 16.5723 105.684 16.4901 105.683 16.4079C105.701 16.4192 105.719 16.4307 105.737 16.4424C105.743 16.5228 105.75 16.6032 105.757 16.6834C105.734 16.6736 105.711 16.6639 105.687 16.6545ZM105.565 16.7406C105.138 16.5789 104.681 16.4938 104.215 16.4938H100.349C99.0473 16.4938 97.879 15.9201 97.0837 15.0116C96.9395 15.2109 96.8139 15.4216 96.7075 15.6407C97.5588 16.8484 99.0213 17.5719 100.595 17.4065L104.439 17.0024C104.823 16.9621 105.207 16.9786 105.579 17.0486C105.573 16.946 105.569 16.8433 105.565 16.7406ZM105.706 17.0744C105.7 16.98 105.695 16.8855 105.692 16.791C105.718 16.8022 105.745 16.8137 105.771 16.8255C105.781 16.9163 105.792 17.0069 105.803 17.0974C105.771 17.0893 105.738 17.0817 105.706 17.0744ZM105.587 17.177C105.217 17.1042 104.835 17.0861 104.452 17.1263L100.608 17.5303C99.0132 17.698 97.5293 16.9789 96.6472 15.7704C96.5562 15.9752 96.4818 16.1867 96.4244 16.4028C97.3134 17.9386 99.1183 18.8012 100.948 18.4123L104.729 17.6085C105.023 17.5461 105.32 17.5179 105.616 17.5229C105.605 17.4078 105.595 17.2924 105.587 17.177ZM105.742 17.5271C105.731 17.4196 105.722 17.3119 105.714 17.2041C105.75 17.2124 105.786 17.2212 105.821 17.2305C105.835 17.3323 105.851 17.4339 105.867 17.5353C105.825 17.5319 105.784 17.5291 105.742 17.5271ZM105.629 17.6478C105.338 17.6417 105.044 17.6688 104.755 17.7304L100.974 18.5341C99.1342 18.9252 97.319 18.0873 96.3824 16.5752C96.3388 16.7723 96.3092 16.9727 96.2942 17.1747C97.1871 19.0627 99.3651 20.0383 101.404 19.3758L105.08 18.1812C105.276 18.1176 105.476 18.0697 105.677 18.0376C105.659 17.9079 105.643 17.778 105.629 17.6478ZM105.8 18.0199C105.783 17.8977 105.768 17.7752 105.754 17.6525C105.799 17.6549 105.844 17.6581 105.889 17.6621C105.909 17.7762 105.93 17.89 105.953 18.0034C105.902 18.0079 105.851 18.0134 105.8 18.0199ZM105.694 18.1609C105.5 18.192 105.308 18.2382 105.119 18.2997L101.442 19.4943C99.4168 20.1525 97.2577 19.2401 96.2829 17.4286C96.2805 17.5983 96.2883 17.7685 96.3066 17.9386C96.3338 18.0096 96.363 18.0803 96.3943 18.1506C97.341 20.2768 99.832 21.233 101.958 20.2864L105.489 18.7141C105.581 18.6732 105.674 18.636 105.768 18.6025C105.741 18.4557 105.716 18.3085 105.694 18.1609ZM105.887 18.5621C105.862 18.4229 105.838 18.2832 105.818 18.1432C105.871 18.1364 105.925 18.1307 105.979 18.1262C106.006 18.2542 106.036 18.3818 106.067 18.5089C106.007 18.5252 105.947 18.5429 105.887 18.5621ZM105.792 18.7263C105.707 18.7571 105.623 18.7909 105.54 18.8279L102.008 20.4002C99.8965 21.3407 97.4343 20.4569 96.3887 18.4268C96.4804 18.826 96.6323 19.2185 96.8477 19.5917C98.0115 21.6073 100.588 22.2979 102.604 21.1341L105.901 19.2304C105.861 19.0631 105.825 18.895 105.792 18.7263ZM106.014 19.1661C105.976 19.0065 105.942 18.8463 105.911 18.6854C105.973 18.6652 106.035 18.6467 106.098 18.6297C106.135 18.7742 106.175 18.918 106.217 19.0612C106.149 19.0941 106.081 19.1291 106.014 19.1661ZM106.044 19.2918C106.321 20.4094 106.754 21.4926 107.34 22.5075L109.658 26.5227C110.7 28.3264 112.873 29.0691 114.763 28.3714C113.277 28.5212 111.754 27.8995 110.813 26.6045L108.088 22.8536C107.271 21.7285 106.655 20.4865 106.254 19.1819C106.183 19.2162 106.113 19.2529 106.044 19.2918ZM106.332 19.0085C106.389 18.9832 106.447 18.9593 106.505 18.9368C106.461 18.8137 106.418 18.6899 106.378 18.5654C106.324 18.5755 106.271 18.5868 106.219 18.5992C106.254 18.7363 106.292 18.8727 106.332 19.0085ZM106.188 18.4784C106.238 18.4666 106.289 18.4558 106.339 18.4459C106.304 18.3355 106.271 18.2246 106.239 18.1133C106.194 18.114 106.149 18.1155 106.105 18.1177C106.131 18.2384 106.158 18.3586 106.188 18.4784ZM106.079 17.9944C106.121 17.992 106.163 17.9904 106.205 17.9894C106.177 17.8902 106.151 17.7908 106.127 17.6909C106.09 17.6854 106.054 17.6803 106.018 17.6758C106.037 17.7823 106.057 17.8885 106.079 17.9944ZM105.996 17.5478C106.029 17.5516 106.062 17.5558 106.095 17.5604C106.074 17.4717 106.054 17.3827 106.035 17.2934C106.007 17.2844 105.98 17.2758 105.952 17.2674C105.965 17.361 105.98 17.4545 105.996 17.5478ZM105.933 17.1321C105.958 17.1391 105.982 17.1462 106.006 17.1536C105.99 17.0747 105.975 16.9956 105.961 16.9163C105.942 16.9065 105.923 16.8969 105.903 16.8875C105.913 16.9692 105.923 17.0507 105.933 17.1321ZM105.888 16.7419C105.903 16.7491 105.919 16.7564 105.934 16.7638C105.922 16.6946 105.911 16.6253 105.901 16.5559C105.89 16.5481 105.879 16.5405 105.869 16.5329C105.875 16.6026 105.881 16.6723 105.888 16.7419ZM105.857 16.3725C105.863 16.3769 105.87 16.3814 105.876 16.3858C105.868 16.3271 105.86 16.2683 105.853 16.2095C105.851 16.2071 105.848 16.2046 105.846 16.2022C105.849 16.259 105.853 16.3158 105.857 16.3725ZM106.044 16.6661C106.053 16.7222 106.063 16.7783 106.072 16.8343C106.079 16.838 106.086 16.8418 106.093 16.8456C106.079 16.7881 106.066 16.7305 106.052 16.6728C106.049 16.6705 106.047 16.6683 106.044 16.6661ZM106.136 17.0122C106.124 17.0055 106.113 16.999 106.101 16.9925C106.114 17.0611 106.128 17.1297 106.142 17.1981C106.158 17.2037 106.174 17.2093 106.19 17.2151C106.172 17.1476 106.153 17.08 106.136 17.0122ZM106.336 17.2708C106.32 17.2163 106.305 17.1616 106.29 17.1068C106.293 17.1087 106.296 17.1106 106.298 17.1125C106.318 17.1684 106.337 17.2242 106.357 17.2798C106.35 17.2767 106.343 17.2738 106.336 17.2708ZM106.233 17.364C106.213 17.3563 106.193 17.3487 106.173 17.3413C106.19 17.4215 106.209 17.5015 106.228 17.5813C106.253 17.5857 106.278 17.5903 106.303 17.5952C106.279 17.5184 106.255 17.4413 106.233 17.364ZM106.443 17.6251C106.422 17.5586 106.401 17.492 106.381 17.4251C106.393 17.4303 106.405 17.4356 106.417 17.441C106.442 17.5066 106.467 17.5719 106.492 17.637C106.476 17.6329 106.46 17.629 106.443 17.6251ZM106.346 17.7312C106.318 17.7251 106.289 17.7193 106.261 17.7139C106.284 17.8057 106.308 17.8972 106.334 17.9884C106.367 17.9887 106.401 17.9894 106.434 17.9906C106.404 17.9045 106.375 17.818 106.346 17.7312ZM106.569 17.9975C106.541 17.9201 106.514 17.8424 106.488 17.7644C106.509 17.7696 106.53 17.775 106.55 17.7806C106.581 17.8552 106.612 17.9295 106.644 18.0034C106.619 18.0012 106.594 17.9993 106.569 17.9975ZM106.479 18.1171C106.442 18.1154 106.406 18.1142 106.369 18.1135C106.399 18.2174 106.43 18.3208 106.463 18.4239C106.504 18.4172 106.546 18.4111 106.588 18.4057C106.55 18.31 106.514 18.2138 106.479 18.1171ZM106.716 18.3913C106.681 18.3033 106.648 18.2148 106.615 18.126C106.644 18.1284 106.673 18.1311 106.702 18.1342C106.739 18.2175 106.777 18.3005 106.816 18.383C106.783 18.3853 106.749 18.3881 106.716 18.3913ZM106.635 18.5253C106.591 18.5307 106.546 18.5369 106.502 18.5438C106.54 18.6611 106.58 18.7778 106.622 18.8938C106.671 18.8768 106.72 18.8607 106.769 18.8457C106.723 18.7395 106.678 18.6327 106.635 18.5253ZM106.89 18.8108C106.847 18.7118 106.805 18.6121 106.764 18.512C106.801 18.5088 106.837 18.5062 106.874 18.5041C106.919 18.5965 106.965 18.6884 107.012 18.7797C106.971 18.7895 106.931 18.7998 106.89 18.8108ZM106.941 18.9261C107.639 20.4813 108.658 21.8905 109.949 23.0532L113.395 26.1555C114.262 26.9364 115.365 27.2907 116.445 27.2316C116.595 27.0643 116.73 26.8864 116.85 26.6998C116.037 26.6596 115.226 26.3904 114.519 25.8762L110.768 23.1511C109.213 22.0214 107.955 20.5603 107.072 18.8937C107.028 18.9037 106.985 18.9145 106.941 18.9261ZM107.199 18.867C108.072 20.5038 109.311 21.939 110.841 23.0503L114.592 25.7755C115.299 26.2894 116.113 26.5514 116.926 26.5783C117.051 26.3679 117.158 26.1476 117.244 25.9202C116.709 25.8449 116.178 25.6674 115.681 25.3802L111.665 23.0621C109.872 22.0269 108.382 20.5733 107.307 18.8477C107.271 18.8536 107.235 18.86 107.199 18.867ZM107.138 18.752C107.171 18.7454 107.204 18.7391 107.237 18.7333C107.189 18.6553 107.143 18.5768 107.097 18.4978C107.068 18.4977 107.039 18.498 107.01 18.4987C107.052 18.5836 107.094 18.6681 107.138 18.752ZM106.95 18.3758C106.976 18.3749 107.001 18.3742 107.026 18.3738C106.987 18.3036 106.948 18.233 106.91 18.162C106.889 18.1586 106.867 18.1554 106.846 18.1523C106.88 18.2272 106.915 18.3017 106.95 18.3758ZM106.787 18.0186C106.803 18.0207 106.82 18.0229 106.837 18.0252C106.805 17.9631 106.773 17.9006 106.741 17.8379C106.729 17.8338 106.716 17.8298 106.704 17.8258C106.731 17.8903 106.759 17.9546 106.787 18.0186ZM106.643 17.6772C106.65 17.6793 106.658 17.6815 106.665 17.6838C106.64 17.6306 106.614 17.5773 106.589 17.5238C106.586 17.5222 106.583 17.5206 106.58 17.519C106.601 17.5719 106.621 17.6246 106.643 17.6772ZM106.912 17.8984C106.938 17.949 106.964 17.9993 106.991 18.0495C106.998 18.0509 107.006 18.0523 107.014 18.0537C106.983 18.0035 106.952 17.953 106.922 17.9023C106.918 17.901 106.915 17.8997 106.912 17.8984ZM107.106 18.1991C107.093 18.1963 107.08 18.1936 107.067 18.191C107.101 18.2523 107.135 18.3133 107.17 18.374C107.187 18.3743 107.204 18.3747 107.221 18.3753C107.182 18.3169 107.144 18.2582 107.106 18.1991ZM107.376 18.3834C107.344 18.3363 107.313 18.289 107.282 18.2415C107.285 18.2424 107.288 18.2434 107.292 18.2443C107.327 18.2915 107.363 18.3385 107.4 18.3852C107.392 18.3845 107.384 18.384 107.376 18.3834ZM107.307 18.5038C107.286 18.5026 107.264 18.5016 107.243 18.5007C107.285 18.5716 107.327 18.6421 107.37 18.7121C107.395 18.7085 107.42 18.7052 107.445 18.7022C107.398 18.6365 107.352 18.5704 107.307 18.5038ZM107.529 18.8181C107.5 18.8211 107.471 18.8244 107.442 18.8281C108.504 20.5163 109.969 21.9386 111.728 22.9542L115.743 25.2724C116.234 25.556 116.759 25.7295 117.288 25.8004C117.377 25.5431 117.442 25.2775 117.48 25.0076C117.246 24.9477 117.013 24.8672 116.784 24.7654L112.549 22.8796C110.531 21.9813 108.806 20.5733 107.529 18.8181ZM117.602 25.0368C117.564 25.3016 117.501 25.5624 117.415 25.8155C117.659 25.8407 117.905 25.8443 118.148 25.8268C118.25 25.6045 118.333 25.3742 118.396 25.139C118.132 25.1297 117.866 25.0961 117.602 25.0368ZM117.618 24.9127C117.887 24.9738 118.158 25.0076 118.427 25.0153C118.489 24.75 118.525 24.4792 118.535 24.2067C118.296 24.1716 118.056 24.116 117.818 24.0387L117.625 23.9762C117.657 24.2894 117.654 24.6035 117.618 24.9127ZM118.085 25.9556C117.848 25.9687 117.61 25.9624 117.372 25.9362C117.289 26.1582 117.187 26.3739 117.069 26.5806C117.293 26.5804 117.517 26.5624 117.737 26.5269C117.869 26.3448 117.985 26.1537 118.085 25.9556ZM117.63 26.6684C117.42 26.6959 117.207 26.708 116.995 26.7046C116.884 26.8837 116.759 27.0555 116.621 27.2183C116.822 27.1988 117.022 27.165 117.219 27.1169C117.368 26.976 117.506 26.826 117.63 26.6684ZM108.97 19.1239C110.97 20.4343 113.323 21.1475 115.75 21.1475H116.287L116.033 20.7074C113.562 20.8889 111.106 20.3309 108.97 19.1239ZM109.454 19.2438C111.449 20.2711 113.699 20.7427 115.964 20.5875L115.746 20.2098C113.597 20.4368 111.429 20.1017 109.454 19.2438ZM115.881 20.1948L116.102 20.5773C116.205 20.569 116.308 20.5595 116.411 20.5486L116.945 20.4926L116.646 20.0815C116.392 20.1273 116.136 20.165 115.881 20.1948ZM116.565 19.9694C116.315 20.0131 116.064 20.0491 115.813 20.0772L115.62 19.7433C115.85 19.7076 116.08 19.6654 116.308 19.6167L116.565 19.9694ZM116.782 20.0563L117.088 20.4775L118.072 20.3741L117.627 19.8793L117.032 20.0058C116.949 20.0235 116.865 20.0403 116.782 20.0563ZM117.531 19.7725L117.006 19.8839C116.904 19.9055 116.803 19.9258 116.701 19.9448L116.441 19.5877C116.692 19.5313 116.942 19.4671 117.191 19.3949L117.531 19.7725ZM117.767 19.8494L118.225 20.358L119.376 20.237C119.27 20.117 119.156 20.0018 119.034 19.892L118.754 19.6397L117.767 19.8494ZM118.64 19.5367L117.671 19.7425L117.323 19.3557C117.404 19.3311 117.485 19.3056 117.566 19.2793L118.145 19.0913L118.64 19.5367ZM118.905 19.6077L119.118 19.7995C119.266 19.9326 119.402 20.0735 119.527 20.2211L120.627 20.1056C120.459 19.8418 120.261 19.594 120.031 19.3682L118.905 19.6077ZM119.922 19.2641L118.79 19.5047L118.282 19.0468L119.241 18.7352L119.546 18.9568C119.679 19.0532 119.804 19.1559 119.922 19.2641ZM120.177 19.3374C120.403 19.5692 120.599 19.8224 120.765 20.0911L121.022 20.064C121.259 20.0391 121.489 19.9951 121.711 19.9336C121.585 19.6446 121.426 19.3687 121.236 19.1122L120.177 19.3374ZM121.152 19.0027L120.071 19.2326C119.931 19.0989 119.78 18.973 119.619 18.856L119.387 18.6876L120.483 18.3317C120.734 18.5323 120.958 18.7579 121.152 19.0027ZM121.369 19.0838C121.553 19.3392 121.708 19.6126 121.831 19.8984C122.095 19.8169 122.346 19.7108 122.583 19.5828C122.504 19.3221 122.4 19.0694 122.273 18.8285C122.048 18.918 121.812 18.9898 121.567 19.0418L121.369 19.0838ZM122.212 18.7184C121.998 18.8027 121.774 18.8705 121.541 18.92L121.288 18.9739C121.095 18.7239 120.873 18.4927 120.624 18.2859L121.654 17.9511C121.87 18.1864 122.057 18.4441 122.212 18.7184ZM122.388 18.7806C122.513 19.0174 122.615 19.2652 122.694 19.5205C122.907 19.3971 123.108 19.2557 123.294 19.0987C123.247 18.8585 123.178 18.6235 123.091 18.3965C122.871 18.5445 122.637 18.6734 122.388 18.7806ZM123.043 18.2783C122.821 18.4303 122.582 18.5622 122.329 18.6707C122.176 18.3994 121.994 18.1437 121.784 17.9089L121.976 17.8466C122.214 17.7692 122.441 17.6731 122.656 17.5605C122.808 17.7868 122.937 18.0273 123.043 18.2783ZM123.196 18.3233C123.283 18.5438 123.352 18.7717 123.402 19.0047C123.568 18.8545 123.723 18.6914 123.863 18.5173C123.839 18.2937 123.798 18.074 123.739 17.8601C123.572 18.0283 123.39 18.1835 123.196 18.3233ZM123.699 17.7227C123.53 17.8983 123.346 18.0598 123.147 18.2048C123.042 17.9591 122.914 17.7233 122.765 17.5008C123.001 17.3683 123.221 17.2156 123.424 17.0455C123.535 17.2622 123.627 17.4887 123.699 17.7227ZM123.364 16.933C123.233 16.6944 123.078 16.4688 122.904 16.2596C122.702 16.3941 122.486 16.5134 122.257 16.6153L122.073 16.6972C122.306 16.9087 122.514 17.144 122.695 17.3978C122.935 17.2634 123.159 17.1074 123.364 16.933ZM122.584 17.4574C122.401 17.2009 122.188 16.9641 121.949 16.7527L120.959 17.1932C121.229 17.3729 121.473 17.5797 121.691 17.8082L121.937 17.7282C122.164 17.6546 122.38 17.5637 122.584 17.4574ZM121.559 17.851C121.34 17.6278 121.095 17.4268 120.824 17.2536L119.771 17.7221L120.019 17.8654C120.192 17.9648 120.354 18.0743 120.508 18.1927L121.559 17.851ZM120.363 18.2396C120.234 18.1443 120.099 18.0552 119.957 17.9732L119.631 17.7848L118.709 18.1949L119.263 18.5971L120.363 18.2396ZM119.116 18.6447L118.578 18.2534L118.022 18.501C117.944 18.5356 117.866 18.5693 117.788 18.6022L118.175 18.9506L119.116 18.6447ZM118.038 18.995L117.661 18.6551C117.421 18.7528 117.179 18.8429 116.935 18.9252L117.231 19.2533C117.33 19.2238 117.429 19.193 117.528 19.1609L118.038 18.995ZM117.098 19.292L116.806 18.968C116.584 19.0403 116.36 19.1063 116.135 19.1659L116.361 19.4778C116.608 19.4236 116.854 19.3616 117.098 19.292ZM116.228 19.5063L116.005 19.1994C115.8 19.2513 115.594 19.298 115.387 19.3393L115.553 19.6275C115.779 19.5934 116.004 19.5531 116.228 19.5063ZM115.421 19.6469L115.258 19.3644C113.672 19.6637 112.041 19.6537 110.455 19.332C112.071 19.7717 113.76 19.8794 115.421 19.6469ZM110.956 19.2968C112.361 19.525 113.794 19.5088 115.192 19.2501L115.053 19.0105C113.716 19.3304 112.332 19.4283 110.956 19.2968ZM115.179 18.9797L115.321 19.2254C115.524 19.1856 115.726 19.1408 115.926 19.0908L115.735 18.827C115.551 18.8822 115.365 18.9331 115.179 18.9797ZM115.657 18.7202C115.477 18.7734 115.296 18.8225 115.114 18.8674L114.747 18.2311C114.325 17.5006 114.16 16.6555 114.268 15.8283C114.326 16.5437 114.579 17.2361 115.008 17.8264L115.657 18.7202ZM115.861 18.7885L116.056 19.0577C116.277 19.0002 116.497 18.9365 116.715 18.8666L116.461 18.5847C116.262 18.6578 116.062 18.7257 115.861 18.7885ZM116.371 18.4849C116.177 18.5556 115.981 18.6213 115.783 18.682L115.108 17.7532C114.613 17.0706 114.359 16.2473 114.38 15.4131C114.513 16.1187 114.837 16.781 115.325 17.3233L116.371 18.4849ZM116.586 18.5378L116.844 18.8243C117.084 18.7445 117.322 18.6572 117.558 18.5624L117.234 18.2707C117.02 18.3659 116.804 18.455 116.586 18.5378ZM117.132 18.1794C116.923 18.2718 116.711 18.3581 116.497 18.4384L115.418 17.24C114.856 16.6158 114.519 15.8277 114.45 15.0001L114.451 14.9951C114.658 15.6805 115.048 16.3029 115.589 16.7897L117.132 18.1794ZM117.358 18.2146L117.686 18.5101C117.781 18.4704 117.876 18.4294 117.971 18.3872L118.461 18.1689L118.05 17.8703C117.822 17.9925 117.591 18.1073 117.358 18.2146ZM117.938 17.7889C117.714 17.9078 117.487 18.0194 117.257 18.1238L115.672 16.6972C115.09 16.173 114.688 15.4867 114.51 14.7346C114.515 14.7144 114.519 14.6942 114.523 14.674C114.803 15.289 115.239 15.8275 115.795 16.2316L117.938 17.7889ZM118.172 17.8044L118.593 18.1104L119.497 17.7078L118.921 17.3749L118.393 17.6794C118.32 17.7219 118.246 17.7635 118.172 17.8044ZM118.796 17.303L118.331 17.5715C118.241 17.6234 118.151 17.674 118.06 17.7234L115.868 16.1309C115.281 15.704 114.832 15.1223 114.567 14.4585C114.573 14.4244 114.58 14.3903 114.586 14.3562C114.924 14.8871 115.387 15.3346 115.942 15.6551L118.796 17.303ZM119.045 17.303L119.638 17.6452L120.695 17.1745C120.557 17.0931 120.413 17.0187 120.263 16.952L119.919 16.7987L119.045 17.303ZM119.778 16.7361L118.921 17.2311L116.004 15.5472C115.426 15.2133 114.95 14.7369 114.619 14.1706C114.626 14.1251 114.634 14.0796 114.641 14.0341C115.018 14.4723 115.49 14.8267 116.028 15.0662L119.778 16.7361ZM120.052 16.7217L120.314 16.8382C120.495 16.9191 120.669 17.011 120.834 17.1127L121.844 16.663C121.603 16.4639 121.337 16.2897 121.05 16.1457L120.052 16.7217ZM120.913 16.0806L119.911 16.6591L116.078 14.9524C115.523 14.7054 115.041 14.3323 114.666 13.8693C114.674 13.8136 114.681 13.7579 114.688 13.7022C115.083 14.044 115.545 14.3073 116.051 14.4717L120.461 15.9044C120.617 15.9551 120.768 16.014 120.913 16.0806ZM121.178 16.0716C121.465 16.2221 121.73 16.4022 121.97 16.6066L122.207 16.5015C122.424 16.4046 122.629 16.2916 122.822 16.1645C122.612 15.9286 122.376 15.7154 122.116 15.5301L121.178 16.0716ZM122.002 15.4519L121.045 16.0046C120.871 15.9207 120.688 15.8474 120.499 15.7859L116.09 14.3532C115.572 14.1852 115.102 13.9104 114.707 13.5522C114.714 13.4868 114.722 13.4213 114.728 13.3558C115.118 13.6021 115.553 13.7802 116.013 13.878L120.548 14.842C121.083 14.9557 121.573 15.1665 122.002 15.4519ZM114.611 13.2787C114.599 13.2709 114.588 13.2631 114.577 13.2552C114.575 13.3112 114.574 13.3673 114.571 13.4235C114.579 13.4308 114.586 13.4381 114.594 13.4454C114.6 13.3898 114.605 13.3343 114.611 13.2787ZM114.576 13.6007C114.572 13.5971 114.568 13.5935 114.564 13.5899C114.562 13.6359 114.559 13.6819 114.556 13.7279L114.559 13.7314C114.565 13.6879 114.57 13.6443 114.576 13.6007ZM114.451 13.2975C114.452 13.2536 114.453 13.2098 114.454 13.166C114.45 13.1628 114.446 13.1597 114.441 13.1565C114.444 13.2024 114.446 13.2484 114.448 13.2944L114.451 13.2975ZM113.591 11.7451C113.575 11.7044 113.558 11.6639 113.54 11.6234C113.535 11.6223 113.53 11.6211 113.525 11.6199C113.547 11.661 113.567 11.7022 113.588 11.7435L113.591 11.7451ZM113.449 11.4721C113.459 11.4748 113.468 11.4774 113.478 11.4799C113.456 11.4288 113.433 11.3778 113.41 11.327C113.396 11.326 113.383 11.3249 113.369 11.3237C113.396 11.373 113.422 11.4225 113.449 11.4721ZM113.218 11.3079C113.239 11.3462 113.26 11.3847 113.281 11.4233L113.278 11.4221C113.253 11.3833 113.228 11.3445 113.203 11.306C113.208 11.3066 113.213 11.3073 113.218 11.3079ZM113.296 11.1915C113.314 11.1935 113.332 11.1953 113.35 11.1969C113.321 11.1361 113.292 11.0755 113.262 11.0152C113.241 11.017 113.219 11.0186 113.198 11.02C113.231 11.0769 113.263 11.1341 113.296 11.1915ZM113.057 11.0267C113.086 11.0748 113.114 11.1232 113.141 11.1717C113.131 11.1702 113.121 11.1686 113.111 11.167C113.08 11.1204 113.048 11.0739 113.016 11.0277C113.03 11.0275 113.044 11.0271 113.057 11.0267ZM113.126 10.8993C113.152 10.8981 113.177 10.8966 113.202 10.8948C113.167 10.8245 113.131 10.7545 113.094 10.6849C113.065 10.692 113.037 10.6987 113.008 10.7052C113.048 10.7695 113.087 10.8342 113.126 10.8993ZM112.878 10.732C112.914 10.7889 112.949 10.8461 112.984 10.9037C112.966 10.9039 112.948 10.904 112.93 10.9039C112.891 10.8501 112.853 10.7967 112.814 10.7436C112.835 10.7399 112.857 10.7361 112.878 10.732ZM112.937 10.5931C112.969 10.5863 113.001 10.5791 113.033 10.5714C111.954 8.57757 110.337 6.90148 108.341 5.74916L104.993 3.81633C104.502 3.53259 103.977 3.35909 103.447 3.28816C103.358 3.54534 103.293 3.8108 103.255 4.08057C103.49 4.14052 103.723 4.22103 103.952 4.323L107.483 5.89531C109.739 6.89977 111.629 8.54141 112.937 10.5931ZM103.239 4.20511C103.462 4.26292 103.684 4.33988 103.901 4.43679L107.433 6.0091C109.651 6.99677 111.512 8.6067 112.806 10.6186C112.781 10.623 112.756 10.6271 112.731 10.631C111.197 8.5855 109.06 7.0449 106.595 6.24415L103.239 5.15375C103.203 4.83668 103.203 4.51842 103.239 4.20511ZM103.133 4.05141C103.172 3.78673 103.234 3.52613 103.321 3.27316C103.076 3.24793 102.83 3.24443 102.587 3.2619C102.485 3.48415 102.402 3.71429 102.339 3.94943C102.604 3.95861 102.869 3.9922 103.133 4.05141ZM102.308 4.0731C102.577 4.08074 102.848 4.1144 103.117 4.17546C103.081 4.48457 103.078 4.79846 103.11 5.11156L102.919 5.04959C102.68 4.97209 102.44 4.91637 102.2 4.88132C102.21 4.60899 102.246 4.33823 102.308 4.0731ZM102.211 3.94688C102.27 3.71744 102.349 3.49249 102.445 3.27457C102.222 3.2982 102.002 3.33952 101.786 3.39792C101.673 3.59276 101.578 3.79493 101.499 4.00227C101.733 3.96445 101.972 3.94568 102.211 3.94688ZM101.451 4.13686C101.691 4.09408 101.935 4.07192 102.181 4.07142C102.122 4.33202 102.086 4.59777 102.076 4.86504C101.807 4.83375 101.54 4.82812 101.276 4.84663C101.313 4.60622 101.372 4.36866 101.451 4.13686ZM101.258 4.97286C101.224 5.24303 101.216 5.51613 101.235 5.78805C101.477 5.79781 101.722 5.8281 101.967 5.88024L102.163 5.92192C102.099 5.61381 102.069 5.30131 102.073 4.99011C101.799 4.95749 101.526 4.95232 101.258 4.97286ZM102.197 5.00684C102.195 5.32215 102.228 5.63873 102.297 5.95031L103.356 6.17545C103.243 5.8715 103.167 5.56039 103.125 5.2477L102.88 5.16805C102.654 5.0944 102.425 5.041 102.197 5.00684ZM103.257 5.29054C103.303 5.59965 103.384 5.9068 103.501 6.20628L105.748 6.68396C108.395 7.24643 110.77 8.64822 112.535 10.6562C112.553 10.6543 112.571 10.6524 112.589 10.6502C111.073 8.65276 108.974 7.14812 106.557 6.36261L103.257 5.29054ZM112.675 10.7649C112.661 10.7668 112.648 10.7686 112.634 10.7703C112.671 10.8129 112.707 10.8557 112.743 10.8989C112.753 10.8994 112.764 10.8999 112.774 10.9003C112.741 10.855 112.708 10.8098 112.675 10.7649ZM112.864 11.0278C112.859 11.0277 112.854 11.0276 112.849 11.0274C112.878 11.0632 112.907 11.0991 112.935 11.1352L112.939 11.136C112.915 11.0998 112.89 11.0637 112.864 11.0278ZM112.569 10.8859C112.541 10.8525 112.512 10.8193 112.483 10.7862C112.478 10.7866 112.473 10.7871 112.468 10.7875C112.5 10.82 112.533 10.8526 112.565 10.8855L112.569 10.8859ZM112.349 10.6707C112.359 10.6701 112.37 10.6695 112.38 10.6689C110.639 8.71812 108.312 7.35615 105.722 6.80579L103.559 6.34586C103.622 6.49307 103.695 6.63818 103.778 6.78049L103.966 7.10633L104.952 7.20998C107.75 7.50402 110.351 8.73121 112.349 10.6707ZM104.043 7.23966L104.939 7.33385C107.668 7.6207 110.208 8.80446 112.175 10.676H112.17C109.982 8.86932 107.234 7.8543 104.376 7.81742L104.043 7.23966ZM103.813 7.09023L103.67 6.84276C103.57 6.67022 103.484 6.49367 103.41 6.31429L102.329 6.08447C102.407 6.38716 102.519 6.68423 102.667 6.96983L103.813 7.09023ZM102.739 7.10263L103.89 7.22357L104.232 7.81639C104.226 7.81638 104.22 7.81637 104.215 7.81637L103.223 7.81638L103.002 7.5119C102.905 7.37899 102.818 7.24233 102.739 7.10263ZM102.52 6.95433C102.376 6.66378 102.267 6.36232 102.193 6.05565L101.941 6.00208C101.708 5.95252 101.475 5.92329 101.245 5.91317C101.276 6.22703 101.341 6.53848 101.443 6.84116L102.52 6.95433ZM101.489 6.97123L102.588 7.08676C102.68 7.25744 102.784 7.42395 102.901 7.58511L103.069 7.81638H101.918C101.741 7.54782 101.598 7.26414 101.489 6.97123ZM102.003 7.94093C102.096 8.07156 102.197 8.19824 102.307 8.32028L102.559 8.60002L103.545 8.49638C103.551 8.49579 103.556 8.49521 103.562 8.49463L103.16 7.94093H102.003ZM103.314 7.94093L103.706 8.48055C104 8.4535 104.293 8.43694 104.586 8.43071L104.304 7.94125C104.274 7.94104 104.244 7.94093 104.215 7.94093H103.314ZM104.449 7.94314L104.729 8.42849C107.24 8.40381 109.701 9.13662 111.79 10.5311C109.694 8.90831 107.122 7.99366 104.449 7.94314ZM111.36 10.4032C109.392 9.18552 107.119 8.54296 104.801 8.55255L105.047 8.97952C107.234 8.89165 109.413 9.37998 111.36 10.4032ZM104.907 8.98594L104.658 8.55397C104.369 8.5585 104.08 8.57312 103.791 8.598L104.121 9.05135C104.382 9.02121 104.645 8.99942 104.907 8.98594ZM104.205 9.16724C104.462 9.13912 104.72 9.11913 104.977 9.10722L105.195 9.4842C104.961 9.50492 104.727 9.53226 104.495 9.56623L104.205 9.16724ZM103.979 9.06846L103.647 8.61127C103.617 8.61416 103.588 8.61715 103.558 8.62025L102.662 8.71443L103.109 9.21009C103.398 9.15248 103.688 9.1053 103.979 9.06846ZM103.206 9.31797C103.491 9.26301 103.776 9.21826 104.063 9.18361L104.356 9.58726C104.097 9.62808 103.838 9.67715 103.581 9.7345L103.206 9.31797ZM103.677 9.84096L104.007 10.2075C104.235 10.1493 104.464 10.0978 104.694 10.0527L104.438 9.70056C104.183 9.73932 103.929 9.7861 103.677 9.84096ZM104.577 9.68021L104.829 10.027C105.036 9.98899 105.243 9.95618 105.451 9.92863L105.263 9.60328C105.034 9.62251 104.806 9.64814 104.577 9.68021ZM105.401 9.59251L105.585 9.91161C107.218 9.71322 108.883 9.83801 110.482 10.2885C108.851 9.70256 107.119 9.46757 105.401 9.59251ZM110.037 10.3002C108.598 9.9477 107.113 9.8579 105.653 10.029L105.71 10.1283C105.743 10.1852 105.775 10.2429 105.805 10.3011C107.197 10.0615 108.629 10.0585 110.037 10.3002ZM105.676 10.3239C105.652 10.2791 105.628 10.2346 105.603 10.1905L105.519 10.0454C105.315 10.0715 105.113 10.1027 104.911 10.1389L105.127 10.437C105.309 10.3952 105.492 10.3575 105.676 10.3239ZM105.207 10.5466C105.382 10.5072 105.558 10.4717 105.734 10.4399C106.105 11.2067 106.208 12.0766 106.027 12.9105C106.017 12.0991 105.757 11.3045 105.274 10.6393L105.207 10.5466ZM104.996 10.4679L104.775 10.164C104.549 10.207 104.324 10.2564 104.101 10.3121L104.388 10.6308C104.589 10.5713 104.792 10.5171 104.996 10.4679ZM104.48 10.7335C104.677 10.6764 104.876 10.6242 105.075 10.5771L105.173 10.7125C105.733 11.4823 105.983 12.4312 105.88 13.3727C105.786 12.567 105.444 11.804 104.894 11.193L104.48 10.7335ZM104.348 10.7726C104.128 10.839 103.91 10.9116 103.693 10.9904L104.574 11.7834C105.185 12.3333 105.604 13.0561 105.782 13.8473C105.786 12.9005 105.438 11.9833 104.801 11.2764L104.348 10.7726ZM109.131 18.8562C111.068 19.3427 113.076 19.3493 114.988 18.8979L114.639 18.2934C114.116 17.3878 113.975 16.3116 114.245 15.3015C114.252 15.2773 114.258 15.253 114.265 15.2288C114.273 15.1165 114.285 15.0041 114.303 14.8921C114.307 14.8671 114.311 14.8422 114.315 14.8172C114.311 14.7048 114.312 14.5919 114.318 14.4787C114.319 14.4532 114.321 14.4276 114.322 14.402C114.306 14.291 114.296 14.1789 114.29 14.066C114.288 14.0408 114.287 14.0156 114.286 13.9904C114.259 13.8812 114.236 13.7706 114.218 13.6586C114.214 13.6337 114.21 13.6087 114.206 13.5837C114.168 13.4781 114.134 13.3704 114.105 13.261C114.098 13.2363 114.091 13.2117 114.085 13.1871C114.036 13.0862 113.991 12.9828 113.95 12.8773C113.941 12.8534 113.932 12.8297 113.923 12.8059C113.863 12.7107 113.808 12.6126 113.757 12.5119C113.745 12.4894 113.734 12.467 113.722 12.4447C113.653 12.3559 113.587 12.2639 113.526 12.1688C113.512 12.1479 113.498 12.1271 113.485 12.1063C113.406 12.025 113.331 11.9402 113.26 11.8518C113.244 11.8325 113.228 11.8132 113.213 11.794C113.126 11.7213 113.043 11.6448 112.962 11.5644C112.945 11.5465 112.927 11.5287 112.909 11.5109C112.816 11.4479 112.725 11.3807 112.637 11.3095C112.617 11.2934 112.597 11.2773 112.577 11.2614C112.478 11.2086 112.381 11.1514 112.287 11.0899C112.266 11.0763 112.245 11.0627 112.223 11.0492C112.119 11.0068 112.016 10.9599 111.915 10.9083C111.893 10.8969 111.87 10.8856 111.848 10.8744C111.74 10.8432 111.632 10.8073 111.526 10.7666C111.503 10.7577 111.48 10.7488 111.456 10.74C111.345 10.7203 111.235 10.6957 111.125 10.6663C109.392 10.202 107.597 10.1245 105.862 10.4177C106.258 11.2582 106.347 12.2157 106.104 13.1201C106.047 13.3339 105.996 13.5487 105.95 13.7642C105.928 13.919 105.909 14.0739 105.893 14.229C105.887 14.3847 105.884 14.5403 105.884 14.6956C105.895 14.8529 105.909 15.0098 105.925 15.1661C105.952 15.3204 105.982 15.4739 106.014 15.6266C106.057 15.7768 106.103 15.9259 106.151 16.0739C106.209 16.2194 106.27 16.3635 106.334 16.5062C106.408 16.6457 106.484 16.7835 106.563 16.9195C106.651 17.0503 106.741 17.1792 106.833 17.3062C106.934 17.4265 107.037 17.5446 107.141 17.6606C107.253 17.769 107.367 17.875 107.482 17.9787C107.605 18.075 107.729 18.1687 107.855 18.2599C107.989 18.3442 108.125 18.4257 108.262 18.5045C108.402 18.5734 108.544 18.6395 108.687 18.7029C108.834 18.7569 108.982 18.808 109.131 18.8562ZM110.926 10.3238C109.116 9.4499 107.121 9.03166 105.118 9.10152L105.332 9.47279C107.229 9.32564 109.144 9.61324 110.926 10.3238ZM109.955 19.315C111.769 20.0196 113.73 20.2885 115.677 20.0917L115.488 19.7631C113.634 20.0304 111.742 19.8773 109.955 19.315ZM101.357 4.02767C101.148 4.06854 100.943 4.12462 100.743 4.19525C100.832 4.01521 100.935 3.84001 101.052 3.67115C101.235 3.58321 101.423 3.50863 101.615 3.44782C101.514 3.6356 101.428 3.82947 101.357 4.02767ZM123.839 17.756C123.984 17.6002 124.117 17.4343 124.238 17.2596C124.271 17.4577 124.291 17.6599 124.296 17.8651C124.2 18.0435 124.091 18.2145 123.971 18.3768C123.943 18.1657 123.898 17.9582 123.839 17.756ZM96.1579 17.4698C96.1583 17.3791 96.1616 17.2885 96.1676 17.1982C96.1292 17.1153 96.0931 17.0307 96.0596 16.9445C96.0809 17.12 96.1136 17.2954 96.1579 17.4698ZM96.029 16.4503C96.0485 16.5237 96.0702 16.597 96.0939 16.6701C96.1239 16.7625 96.1568 16.853 96.1924 16.9418C96.2147 16.7661 96.2477 16.592 96.2911 16.4206C96.2045 16.2668 96.1267 16.1066 96.0586 15.9405C96.0385 16.109 96.0285 16.2793 96.029 16.4503ZM96.0964 15.6891C96.1643 15.883 96.2455 16.0693 96.3387 16.2474C96.3992 16.0441 96.4744 15.8452 96.564 15.6524C96.4456 15.4782 96.3393 15.2946 96.2467 15.1027C96.1827 15.294 96.1325 15.49 96.0964 15.6891ZM96.172 14.9394C96.111 15.1051 96.0601 15.2746 96.0196 15.4469C95.9934 15.3549 95.9702 15.2613 95.95 15.1664C95.934 15.0911 95.9201 15.0159 95.9083 14.9408C95.9257 14.7709 95.9534 14.603 95.991 14.4377C96.0413 14.61 96.1019 14.7774 96.172 14.9394ZM96.3064 14.9356C96.3981 15.1408 96.5056 15.3369 96.6271 15.5224C96.7342 15.3107 96.8589 15.1071 97.0008 14.914C96.85 14.7311 96.7138 14.5357 96.5942 14.3296C96.4823 14.5238 96.3861 14.7265 96.3064 14.9356ZM96.5238 14.2035C96.4145 14.386 96.3188 14.5761 96.2374 14.772C96.1633 14.5853 96.102 14.3915 96.0547 14.1917C96.1114 13.9972 96.182 13.8074 96.2656 13.6236C96.3377 13.8242 96.4242 14.0179 96.5238 14.2035ZM96.6677 14.2069C96.7871 14.4207 96.9246 14.623 97.0781 14.8118C97.241 14.6034 97.4244 14.4082 97.6274 14.2296C97.4358 14.0428 97.2619 13.8388 97.1078 13.6203C96.9435 13.8036 96.7964 14 96.6677 14.2069ZM97.0355 13.5146C96.8742 13.6918 96.7287 13.8814 96.6001 14.0808C96.4986 13.8836 96.4122 13.6774 96.3425 13.4637C96.4436 13.264 96.5605 13.0724 96.6922 12.8908C96.7896 13.1084 96.9046 13.3169 97.0355 13.5146ZM97.1943 13.5268C97.3499 13.7503 97.5268 13.9585 97.7225 14.1483C97.909 13.9936 98.111 13.8524 98.328 13.7272L98.5026 13.6263C98.2486 13.4403 98.0173 13.2281 97.8115 12.9945C97.5863 13.1532 97.3801 13.3319 97.1943 13.5268ZM97.7302 12.8994C97.5096 13.0558 97.3068 13.2308 97.1231 13.4211C96.9901 13.2172 96.8745 13.0016 96.7781 12.7765C96.9278 12.5842 97.0945 12.4042 97.2771 12.2392C97.4075 12.4725 97.5592 12.6936 97.7302 12.8994ZM97.9152 12.9237C98.1245 13.1596 98.3609 13.3728 98.6208 13.5581L99.5586 13.0166C99.2716 12.8661 99.0066 12.686 98.7664 12.4815L98.5301 12.5868C98.3126 12.6836 98.1074 12.7966 97.9152 12.9237ZM98.6635 12.391L98.4794 12.473C98.2506 12.5749 98.0349 12.6941 97.8333 12.8285C97.6585 12.6193 97.5043 12.3938 97.3729 12.1552C97.5781 11.9808 97.8018 11.8247 98.0423 11.6904C98.2225 11.9442 98.4304 12.1795 98.6635 12.391ZM98.8931 12.4252C99.1339 12.6243 99.3994 12.7985 99.6871 12.9425L100.684 12.3667L100.422 12.2502C100.241 12.1693 100.067 12.0774 99.9028 11.9756L98.8931 12.4252ZM99.7773 11.8951L98.7882 12.3355C98.549 12.1241 98.3363 11.8873 98.1528 11.6308C98.3572 11.5245 98.5732 11.4336 98.7996 11.36L99.0454 11.2801C99.2629 11.5086 99.5076 11.7154 99.7773 11.8951ZM100.041 11.9139C100.179 11.9953 100.323 12.0697 100.473 12.1364L100.817 12.2897L101.675 11.7943C101.68 11.7914 101.685 11.7885 101.69 11.7856L101.098 11.4434L100.041 11.9139ZM100.964 11.3664L99.9128 11.8348C99.6418 11.6615 99.3959 11.4605 99.1772 11.2373L100.228 10.8958C100.381 11.0142 100.544 11.1238 100.717 11.2233L100.964 11.3664ZM101.238 11.3808L101.816 11.7143C102.073 11.5701 102.335 11.4356 102.6 11.3107L102.143 10.9784C102.116 10.9903 102.088 11.0023 102.061 11.0145L101.238 11.3808ZM102.026 10.8937C102.021 10.896 102.016 10.8983 102.01 10.9007L101.105 11.3038L100.779 11.1155C100.637 11.0334 100.501 10.9443 100.372 10.8489L101.472 10.4914L102.026 10.8937ZM101.348 10.4009L101.116 10.2327C100.955 10.1157 100.805 9.98966 100.665 9.85582L99.5839 10.0856C99.7781 10.3305 100.001 10.5561 100.253 10.7568L101.348 10.4009ZM100.112 10.8026C99.8625 10.5957 99.6408 10.3645 99.4483 10.1145L99.1959 10.1681C98.9629 10.2176 98.7386 10.2855 98.524 10.3699C98.6797 10.6442 98.8666 10.9019 99.0823 11.1372L100.112 10.8026ZM98.9525 11.1794C98.7428 10.9446 98.5606 10.6889 98.4079 10.4177C98.1548 10.5261 97.916 10.6579 97.6939 10.8099C97.7996 11.0609 97.9293 11.3013 98.0813 11.5276C98.2959 11.415 98.5228 11.319 98.7611 11.2415L98.9525 11.1794ZM97.9713 11.5873C97.8228 11.3648 97.6951 11.1291 97.5898 10.8834C97.391 11.0284 97.2064 11.1899 97.0375 11.3655C97.1098 11.5995 97.2022 11.826 97.3132 12.0426C97.5158 11.8726 97.7357 11.7198 97.9713 11.5873ZM97.2162 12.1264C97.1068 11.9162 97.0142 11.6968 96.9401 11.4702C96.7901 11.637 96.6538 11.8154 96.5324 12.0033C96.5794 12.2232 96.6438 12.4373 96.7241 12.644C96.8729 12.4592 97.0373 12.2859 97.2162 12.1264ZM96.6354 12.7581C96.5557 12.563 96.49 12.3613 96.4392 12.1544C96.3368 12.3285 96.2467 12.5101 96.1699 12.6977C96.1961 12.9013 96.2368 13.1004 96.291 13.2938C96.3924 13.1073 96.5075 12.9282 96.6354 12.7581ZM96.2084 13.4534C96.1556 13.285 96.1129 13.1122 96.0808 12.9357C96.0261 13.0965 95.9809 13.261 95.9459 13.4285C95.9497 13.504 95.9557 13.5798 95.9637 13.6559C95.9738 13.7526 95.9872 13.8483 96.0036 13.9427C96.0619 13.7755 96.1303 13.6121 96.2084 13.4534ZM95.9261 14.1884C95.9057 14.0995 95.8881 14.0095 95.8732 13.9184C95.8577 14.0941 95.8532 14.2721 95.8603 14.4514C95.8795 14.3629 95.9014 14.2752 95.9261 14.1884ZM95.9491 12.9367C95.9775 12.8504 96.0086 12.7651 96.0423 12.681C96.0314 12.5901 96.0232 12.4984 96.0179 12.4059C95.984 12.5797 95.9608 12.7569 95.9491 12.9367ZM96.1414 11.9264C96.1374 12.0021 96.1353 12.0784 96.1353 12.1551C96.1353 12.2524 96.1386 12.349 96.1451 12.4447C96.2207 12.2843 96.3058 12.1288 96.4001 11.9791C96.3652 11.8059 96.3408 11.6294 96.3273 11.4503C96.256 11.6045 96.1939 11.7634 96.1414 11.9264ZM96.4409 11.2229C96.4456 11.4284 96.4653 11.6308 96.4989 11.829C96.6193 11.6542 96.7525 11.4881 96.8974 11.3322C96.8386 11.1299 96.7943 10.9223 96.7654 10.711C96.6454 10.8734 96.5368 11.0445 96.4409 11.2229ZM96.7449 10.5327C96.6355 10.6716 96.5345 10.8173 96.4427 10.9688C96.4462 10.8732 96.453 10.777 96.4632 10.6804C96.4712 10.6038 96.4813 10.528 96.4933 10.4529C96.5624 10.2964 96.6408 10.145 96.7278 9.99921C96.7224 10.1787 96.7283 10.3568 96.7449 10.5327ZM96.8739 10.5706C96.8977 10.7943 96.9393 11.0141 96.9976 11.2281C97.1648 11.0599 97.3465 10.9047 97.541 10.7649C97.4541 10.5443 97.385 10.3164 97.3349 10.0833C97.1684 10.2334 97.0143 10.3964 96.8739 10.5706ZM97.307 9.94158C97.1466 10.0814 96.9968 10.2325 96.8589 10.3937C96.8461 10.1931 96.8477 9.98975 96.8645 9.78498C96.9785 9.61764 97.1043 9.45894 97.2406 9.31006C97.2472 9.52316 97.2696 9.73419 97.307 9.94158ZM97.4427 9.98928C97.4902 10.2296 97.5585 10.4646 97.6462 10.6917C97.8654 10.5438 98.1 10.4149 98.3481 10.3077C98.2237 10.0709 98.1213 9.82311 98.0422 9.56776C97.8295 9.69114 97.629 9.83241 97.4427 9.98928ZM98.0061 9.44479C97.7981 9.56349 97.6013 9.69872 97.4174 9.84852C97.3818 9.62955 97.3634 9.40665 97.3632 9.18174C97.5209 9.02328 97.6912 8.87731 97.8724 8.74544C97.8979 8.98247 97.9427 9.21638 98.0061 9.44479ZM98.1534 9.50551C98.2323 9.76618 98.3362 10.0189 98.4637 10.2598C98.689 10.1702 98.9248 10.0984 99.17 10.0463L99.3665 10.0045C99.1825 9.74914 99.028 9.4758 98.9046 9.19009C98.6415 9.2715 98.3903 9.37762 98.1534 9.50551ZM98.8566 9.07455C98.5986 9.15513 98.3518 9.25881 98.1184 9.38296C98.0549 9.14801 98.0116 8.9072 97.9895 8.66325C98.1911 8.52669 98.4052 8.40714 98.6297 8.30666C98.6817 8.56887 98.7576 8.82602 98.8566 9.07455ZM99.0251 9.15479C99.1512 9.4438 99.3101 9.71962 99.5 9.97613L100.559 9.751C100.332 9.51914 100.136 9.26602 99.9711 8.99732L99.7142 9.02432C99.4774 9.04922 99.2472 9.09328 99.0251 9.15479ZM99.9012 8.87943L99.7012 8.90045C99.452 8.92664 99.2099 8.97345 98.9765 9.03899C98.875 8.78605 98.7981 8.52386 98.7469 8.25638C98.9958 8.15393 99.2568 8.07462 99.527 8.02116C99.6199 8.31822 99.7449 8.60621 99.9012 8.87943ZM99.4913 7.90123C99.4188 7.6437 99.3702 7.38003 99.346 7.11382C99.1122 7.19031 98.8867 7.28685 98.6719 7.40162C98.6683 7.64653 98.6862 7.89054 98.7248 8.13083C98.97 8.03174 99.2263 7.95441 99.4913 7.90123ZM98.6067 8.1806C98.5675 7.94682 98.5474 7.70952 98.5469 7.47114C98.3528 7.58338 98.1682 7.71079 97.9947 7.85192C97.9715 8.07559 97.9665 8.29916 97.979 8.5206C98.1775 8.39084 98.3874 8.27691 98.6067 8.1806ZM97.8594 8.60162C97.8439 8.39151 97.8437 8.17934 97.8594 7.96676C97.7084 8.10055 97.5668 8.24519 97.4359 8.39965C97.3978 8.60149 97.375 8.80349 97.3667 9.0043C97.5207 8.85847 97.6854 8.72381 97.8594 8.60162ZM97.2388 9.13052C97.2407 8.95398 97.2535 8.77633 97.2776 8.59845C97.1759 8.73426 97.0822 8.87661 96.9971 9.02489C96.9773 9.09833 96.9594 9.1727 96.9434 9.24797C96.9232 9.3429 96.9064 9.43777 96.8929 9.53244C97 9.39146 97.1156 9.25725 97.2388 9.13052ZM96.7432 9.74206C96.7513 9.65098 96.7624 9.55963 96.7765 9.46813C96.7072 9.63092 96.6477 9.7993 96.5988 9.97261C96.6446 9.89416 96.6927 9.81728 96.7432 9.74206ZM97.1523 8.55831C97.2059 8.48513 97.2618 8.41377 97.3197 8.3443C97.3374 8.25463 97.3579 8.16502 97.3815 8.07555C97.2956 8.23009 97.2189 8.39119 97.1523 8.55831ZM97.6472 7.65772C97.6199 7.7286 97.5943 7.80061 97.5705 7.8737C97.5405 7.96604 97.5139 8.05867 97.4905 8.15145C97.6118 8.02248 97.7407 7.90112 97.8764 7.788C97.8967 7.61268 97.928 7.43739 97.9705 7.26304C97.8553 7.38745 97.7472 7.51919 97.6472 7.65772ZM98.1488 7.08185C98.0898 7.27855 98.046 7.47702 98.0168 7.67582C98.1852 7.54685 98.3631 7.4301 98.5489 7.32674C98.5555 7.11618 98.5775 6.90517 98.6153 6.69542C98.4511 6.81273 98.2951 6.94184 98.1488 7.08185ZM98.6509 6.51939C98.504 6.61775 98.3631 6.72503 98.229 6.84068C98.262 6.75076 98.2982 6.66134 98.3377 6.57256C98.3689 6.50249 98.4018 6.43369 98.4363 6.36618C98.5503 6.23876 98.6717 6.11895 98.7993 6.00718C98.7388 6.17612 98.6894 6.34717 98.6509 6.51939ZM98.7619 6.59533C98.7154 6.81533 98.6871 7.03713 98.6763 7.25866C98.8874 7.15032 99.108 7.05892 99.3363 6.98603C99.3217 6.74946 99.3265 6.51135 99.3509 6.27423C99.1462 6.36561 98.9492 6.47306 98.7619 6.59533ZM99.3681 6.13084C99.1723 6.21423 98.9832 6.31178 98.8022 6.42248C98.8521 6.22783 98.9164 6.03504 98.9956 5.84559C99.1557 5.7216 99.3244 5.60947 99.5001 5.50994C99.4405 5.71458 99.3966 5.92213 99.3681 6.13084ZM99.5538 5.33859C99.6102 5.1713 99.6772 5.0063 99.7551 4.84457C99.6164 4.94237 99.4832 5.04884 99.3565 5.16363C99.315 5.22724 99.2751 5.29231 99.2367 5.35881C99.1881 5.44298 99.1428 5.52812 99.1006 5.6141C99.2461 5.51307 99.3974 5.42108 99.5538 5.33859ZM98.8934 5.76729C98.9293 5.68323 98.968 5.59982 99.0097 5.51719C98.8935 5.65054 98.785 5.79225 98.6851 5.94192C98.7528 5.88146 98.8223 5.82324 98.8934 5.76729ZM99.6483 4.7677C99.7219 4.71466 99.7971 4.66404 99.8737 4.61585C99.9182 4.53602 99.9654 4.45715 100.015 4.37934C99.886 4.4998 99.7633 4.62934 99.6483 4.7677ZM98.1284 6.75406C98.0957 6.8405 98.0659 6.9274 98.039 7.01466C97.9742 7.07765 97.9112 7.14273 97.8503 7.20984C97.9339 7.05074 98.0269 6.89866 98.1284 6.75406ZM96.3202 10.9167C96.3158 11.0093 96.3143 11.1014 96.3157 11.1929C96.2734 11.2731 96.2335 11.3547 96.1962 11.4376C96.2266 11.26 96.2682 11.0861 96.3202 10.9167ZM95.8871 15.4355C95.9115 15.5248 95.9385 15.6128 95.9681 15.6993C95.9526 15.7885 95.9399 15.8783 95.93 15.9686C95.9042 15.7904 95.89 15.6124 95.8871 15.4355ZM103.194 1.93363C103.28 1.90595 103.367 1.88103 103.455 1.85888C103.522 1.79672 103.591 1.73631 103.663 1.67778C103.502 1.75233 103.346 1.8376 103.194 1.93363ZM104.123 1.4959C104.059 1.53718 103.997 1.5804 103.934 1.62556C103.856 1.68263 103.78 1.7419 103.706 1.80323C103.88 1.77011 104.056 1.74766 104.232 1.73592C104.352 1.60605 104.48 1.48262 104.617 1.36658C104.451 1.39951 104.286 1.4426 104.123 1.4959ZM104.868 1.32479C104.705 1.44926 104.552 1.58405 104.412 1.72768C105.483 1.70061 106.565 2.06751 107.424 2.84074L110.297 5.42738C111.811 6.79113 112.955 8.49057 113.651 10.3668C113.707 10.3428 113.762 10.3173 113.817 10.2905C113.298 8.55025 112.396 6.92893 111.157 5.5534L108.571 2.68064C107.601 1.60396 106.203 1.14341 104.868 1.32479ZM113.93 10.2332C113.404 8.48363 112.496 6.85373 111.25 5.47005L108.663 2.5973C107.719 1.54876 106.38 1.06778 105.075 1.17686C105.154 1.12349 105.236 1.07244 105.32 1.02385C105.387 0.98547 105.454 0.949103 105.521 0.914734C107.103 0.573948 108.809 1.16484 109.821 2.55787L112.093 5.68526C113.068 7.02776 113.754 8.53841 114.127 10.123L114.055 10.1645C114.014 10.1883 113.972 10.2112 113.93 10.2332ZM113.853 10.4117C113.8 10.437 113.747 10.4611 113.694 10.484C113.732 10.5903 113.769 10.6972 113.804 10.8047C113.853 10.7934 113.901 10.7811 113.95 10.7678C113.919 10.6486 113.887 10.5299 113.853 10.4117ZM114.069 10.7329C114.037 10.6064 114.003 10.4804 113.966 10.3551C114.017 10.3286 114.067 10.3011 114.117 10.2724L114.156 10.25C114.187 10.3909 114.217 10.5324 114.243 10.6744C114.186 10.6953 114.128 10.7148 114.069 10.7329ZM113.98 10.8887C113.934 10.9012 113.889 10.9128 113.843 10.9236C113.873 11.0177 113.902 11.1121 113.929 11.2069C113.97 11.2045 114.011 11.2015 114.051 11.1978C114.029 11.0944 114.005 10.9914 113.98 10.8887ZM114.176 11.1843C114.152 11.0738 114.127 10.9636 114.1 10.8539C114.155 10.8367 114.211 10.8183 114.266 10.7986C114.287 10.9197 114.307 11.0411 114.325 11.1629C114.275 11.171 114.226 11.1782 114.176 11.1843ZM114.078 11.3204C114.04 11.324 114.002 11.327 113.964 11.3295C113.988 11.4128 114.01 11.4964 114.032 11.5802C114.065 11.5837 114.097 11.5867 114.13 11.5893C114.114 11.4995 114.096 11.4098 114.078 11.3204ZM114.258 11.5974C114.241 11.5002 114.222 11.4033 114.202 11.3066C114.249 11.3007 114.296 11.2939 114.342 11.2862C114.357 11.391 114.369 11.4959 114.381 11.6011C114.34 11.6005 114.299 11.5993 114.258 11.5974ZM114.153 11.716C114.123 11.7139 114.094 11.7114 114.065 11.7087C114.083 11.7823 114.1 11.8561 114.117 11.9301C114.142 11.9367 114.166 11.9432 114.191 11.9493C114.179 11.8714 114.166 11.7936 114.153 11.716ZM114.322 11.9796C114.309 11.8939 114.295 11.8083 114.28 11.723C114.318 11.7245 114.356 11.7254 114.394 11.7258C114.403 11.8167 114.411 11.9078 114.418 11.9989C114.386 11.9929 114.354 11.9864 114.322 11.9796ZM114.211 12.0823C114.19 12.0773 114.169 12.0722 114.148 12.0669C114.162 12.1312 114.175 12.1957 114.188 12.2604C114.205 12.2678 114.221 12.275 114.238 12.2822C114.229 12.2154 114.22 12.1488 114.211 12.0823ZM114.37 12.3363C114.361 12.261 114.351 12.1858 114.341 12.1107C114.37 12.1165 114.399 12.122 114.428 12.1272C114.433 12.2058 114.438 12.2845 114.441 12.3632C114.417 12.3545 114.394 12.3455 114.37 12.3363ZM114.568 12.4069C114.599 12.4171 114.631 12.4269 114.662 12.4363C114.665 12.3449 114.666 12.2536 114.667 12.1622C114.629 12.1579 114.591 12.153 114.554 12.1475C114.56 12.2339 114.564 12.3204 114.568 12.4069ZM114.545 12.0203C114.585 12.0265 114.626 12.032 114.667 12.0368C114.666 11.931 114.664 11.8252 114.661 11.7194C114.614 11.7222 114.567 11.7241 114.519 11.7251C114.529 11.8233 114.538 11.9218 114.545 12.0203ZM114.506 11.6008C114.556 11.5998 114.607 11.5979 114.657 11.5949C114.652 11.472 114.645 11.3492 114.636 11.2265C114.579 11.2404 114.522 11.2529 114.465 11.2641C114.48 11.3761 114.494 11.4883 114.506 11.6008ZM114.447 11.1406C114.507 11.1288 114.567 11.1154 114.627 11.1006C114.615 10.9566 114.601 10.8128 114.584 10.6694L114.543 10.6876C114.491 10.711 114.438 10.7331 114.384 10.7541C114.407 10.8826 114.428 11.0114 114.447 11.1406ZM114.361 10.6292C114.405 10.6116 114.449 10.5931 114.492 10.5738L114.568 10.54C114.548 10.3773 114.524 10.215 114.496 10.0532L114.269 10.1847C114.302 10.3323 114.333 10.4805 114.361 10.6292ZM114.239 10.058L114.474 9.9225C114.224 8.52472 113.733 7.16734 113.01 5.9141L111.077 2.56633C110.035 0.762565 107.862 0.0199369 105.972 0.717788C107.457 0.567947 108.981 1.18963 109.921 2.48465L112.194 5.61204C113.171 6.95776 113.861 8.47075 114.239 10.058ZM114.612 9.98681C114.64 10.1531 114.665 10.3199 114.687 10.4871L118.728 8.68803C120.84 7.74768 123.302 8.63107 124.348 10.6605C124.256 10.2617 124.104 9.86959 123.889 9.49672C122.725 7.48112 120.148 6.79053 118.132 7.95423L114.612 9.98681ZM124.43 11.1488C124.403 11.0781 124.374 11.0076 124.342 10.9376C123.396 8.81139 120.905 7.85517 118.778 8.80182L114.703 10.6163C114.721 10.7666 114.736 10.9172 114.749 11.068C114.794 11.0551 114.84 11.0413 114.885 11.0266L119.294 9.59391C121.32 8.93577 123.479 9.84786 124.454 11.659C124.456 11.4893 124.448 11.3189 124.43 11.1488ZM124.442 11.9129C123.549 10.0253 121.371 9.04995 119.333 9.71237L114.923 11.1451C114.869 11.1628 114.814 11.1794 114.759 11.1946C114.768 11.3248 114.776 11.4552 114.781 11.5856C114.93 11.572 115.08 11.5495 115.228 11.518L119.763 10.554C121.602 10.163 123.418 11.0006 124.354 12.5124C124.398 12.3153 124.427 12.1149 124.442 11.9129ZM124.446 12.667C124.489 12.4956 124.522 12.3215 124.544 12.1458C124.58 12.2348 124.613 12.3255 124.643 12.418C124.667 12.491 124.688 12.5642 124.708 12.6375C124.708 12.8085 124.698 12.9787 124.678 13.1472C124.61 12.9811 124.532 12.8208 124.446 12.667ZM124.312 12.6848C123.423 11.1494 121.618 10.2869 119.789 10.6759L115.254 11.6398C115.098 11.6728 114.942 11.6963 114.785 11.7103C114.789 11.8233 114.791 11.9364 114.791 12.0496C115.031 12.0702 115.274 12.0682 115.517 12.0426L120.128 11.558C121.723 11.3904 123.207 12.1095 124.089 13.318C124.18 13.113 124.255 12.9012 124.312 12.6848ZM124.172 13.4361C124.262 13.243 124.337 13.0438 124.398 12.8403C124.491 13.0183 124.572 13.2047 124.64 13.3985C124.604 13.598 124.554 13.7943 124.49 13.986C124.397 13.794 124.291 13.6103 124.172 13.4361ZM124.029 13.4477C123.178 12.24 121.715 11.5165 120.141 11.6819L115.53 12.1665C115.283 12.1925 115.036 12.1949 114.791 12.1746C114.791 12.2733 114.789 12.3721 114.786 12.4708C115.098 12.5523 115.422 12.5946 115.75 12.5946H120.387C121.689 12.5946 122.857 13.1684 123.653 14.0769C123.797 13.8776 123.923 13.6669 124.029 13.4477ZM123.736 14.1746C123.877 13.9814 124.002 13.7777 124.109 13.566C124.231 13.7516 124.338 13.9477 124.43 14.1531C124.35 14.3621 124.254 14.5648 124.142 14.7591C124.023 14.5529 123.886 14.3574 123.736 14.1746ZM124.213 14.8852C124.312 15.0709 124.399 15.2647 124.471 15.4653C124.554 15.2816 124.625 15.0917 124.682 14.8973C124.635 14.6974 124.573 14.5035 124.499 14.3166C124.418 14.5126 124.322 14.7027 124.213 14.8852ZM124.565 14.1493C124.635 14.3114 124.695 14.4789 124.746 14.6513C124.783 14.4856 124.811 14.3171 124.829 14.1467C124.817 14.0718 124.803 13.9968 124.787 13.9218C124.767 13.8266 124.743 13.7329 124.717 13.6408C124.677 13.8134 124.626 13.9832 124.565 14.1493ZM124.769 13.3883C124.798 13.4748 124.825 13.5627 124.85 13.652C124.847 13.4752 124.833 13.2973 124.807 13.1192C124.797 13.2094 124.784 13.2992 124.769 13.3883ZM124.877 14.6361C124.857 14.7251 124.835 14.8133 124.81 14.9006C124.831 14.99 124.849 15.0805 124.864 15.1721C124.879 14.9954 124.884 14.8164 124.877 14.6361ZM124.791 15.6618C124.787 15.5856 124.781 15.5092 124.773 15.4325C124.763 15.3359 124.749 15.2405 124.733 15.1463C124.675 15.3135 124.606 15.4769 124.528 15.6355C124.581 15.8041 124.624 15.9771 124.656 16.1538C124.71 15.9933 124.756 15.829 124.791 15.6618ZM124.694 16.4086C124.705 16.4992 124.713 16.5908 124.718 16.6831C124.752 16.5097 124.775 16.3328 124.787 16.1534C124.759 16.2396 124.728 16.3246 124.694 16.4086ZM124.677 12.1433C124.643 12.057 124.607 11.9724 124.569 11.8894C124.575 11.799 124.578 11.7084 124.579 11.6175C124.623 11.7921 124.656 11.9676 124.677 12.1433ZM105.044 1.04747C104.967 1.0982 104.892 1.15106 104.819 1.20591C104.729 1.21877 104.64 1.23444 104.551 1.25293C104.712 1.17331 104.877 1.10487 105.044 1.04747ZM123.585 20.5292C123.531 20.6024 123.475 20.6739 123.417 20.7435C123.4 20.8332 123.379 20.9229 123.355 21.0125C123.441 20.8578 123.518 20.6965 123.585 20.5292ZM123.09 21.4303C123.117 21.3595 123.143 21.2876 123.166 21.2145C123.196 21.1221 123.223 21.0293 123.246 20.9364C123.125 21.0655 122.996 21.187 122.86 21.3003C122.84 21.4757 122.809 21.6511 122.766 21.8256C122.881 21.701 122.99 21.569 123.09 21.4303ZM122.697 22.0739C122.671 22.1614 122.641 22.2485 122.608 22.3352C122.71 22.1902 122.803 22.0377 122.887 21.8781C122.826 21.9455 122.762 22.0107 122.697 22.0739ZM122.588 22.0067C122.647 21.8099 122.69 21.6114 122.72 21.4125C122.551 21.5415 122.373 21.6583 122.187 21.7617C122.181 21.9724 122.159 22.1834 122.121 22.3932C122.285 22.2759 122.441 22.1467 122.588 22.0067ZM121.974 22.4933C122.021 22.2732 122.049 22.0514 122.06 21.8298C121.849 21.9381 121.628 22.0295 121.4 22.1024C121.414 22.339 121.41 22.5772 121.385 22.8143C121.59 22.723 121.787 22.6155 121.974 22.4933ZM121.254 22.8704C121.283 22.6271 121.29 22.3826 121.277 22.1396C121.023 22.2125 120.76 22.2626 120.491 22.2877C120.536 22.5514 120.557 22.8187 120.553 23.086C120.793 23.0344 121.028 22.962 121.254 22.8704ZM120.428 23.1108C120.433 22.8386 120.413 22.5661 120.366 22.2975C120.124 22.3131 119.878 22.3085 119.629 22.2824L119.428 22.2612C119.524 22.561 119.586 22.8687 119.616 23.1786C119.891 23.1826 120.163 23.1593 120.428 23.1108ZM119.49 23.1749C119.459 22.8611 119.393 22.5496 119.292 22.247L118.215 22.1337C118.359 22.4242 118.467 22.7255 118.541 23.0321L118.795 23.0861C119.028 23.1355 119.26 23.1648 119.49 23.1749ZM118.406 23.0033C118.328 22.7007 118.215 22.4037 118.067 22.1182L116.922 21.9978L117.065 22.2463C117.165 22.4184 117.251 22.5945 117.324 22.7734L118.406 23.0033ZM120.007 25.388C119.928 25.4331 119.848 25.4756 119.767 25.5155C119.714 25.5903 119.659 25.6638 119.601 25.736C119.743 25.6297 119.878 25.5137 120.007 25.388Z" fill="white" fill-opacity="0.75"></path><path d="M3.57937 21.6177H0V37.7685H9.90873V34.6038H3.57937V21.6177Z" fill="white" fill-opacity="0.75"></path><path d="M10.25 32.2902C10.25 35.7387 12.5635 38.0303 16.0556 38.0303C19.5258 38.0303 21.8393 35.7387 21.8393 32.2902C21.8393 28.8418 19.5258 26.5283 16.0556 26.5283C12.5635 26.5283 10.25 28.8418 10.25 32.2902ZM13.6329 32.2684C13.6329 30.6315 14.5933 29.5402 16.0556 29.5402C17.496 29.5402 18.4564 30.6315 18.4564 32.2684C18.4564 33.9272 17.496 35.0184 16.0556 35.0184C14.5933 35.0184 13.6329 33.9272 13.6329 32.2684Z" fill="white" fill-opacity="0.75"></path><path d="M22.3796 32.1158C22.3796 35.4115 24.5185 37.6377 27.5522 37.6377C29.0145 37.6377 30.2804 37.1139 30.9133 36.2627V37.7686C30.9133 39.2746 29.9748 40.2785 28.3161 40.2785C26.832 40.2785 25.8062 39.5801 25.7407 38.3361H22.3359C22.6415 41.3262 24.955 43.3341 28.1197 43.3341C31.8518 43.3341 34.2089 40.9115 34.2089 37.0702V26.8559H31.1752L31.0006 27.969C30.3895 27.0742 29.1018 26.4849 27.6177 26.4849C24.5621 26.4849 22.3796 28.7766 22.3796 32.1158ZM25.7843 32.0285C25.7843 30.4571 26.832 29.4095 28.1633 29.4095C29.7129 29.4095 30.8478 30.4353 30.8478 32.0285C30.8478 33.6218 29.7347 34.7131 28.1851 34.7131C26.8538 34.7131 25.7843 33.6218 25.7843 32.0285Z" fill="white" fill-opacity="0.75"></path><path d="M35.1895 32.2902C35.1895 35.7387 37.503 38.0303 40.9951 38.0303C44.4653 38.0303 46.7788 35.7387 46.7788 32.2902C46.7788 28.8418 44.4653 26.5283 40.9951 26.5283C37.503 26.5283 35.1895 28.8418 35.1895 32.2902ZM38.5725 32.2684C38.5725 30.6315 39.5328 29.5402 40.9951 29.5402C42.4356 29.5402 43.3959 30.6315 43.3959 32.2684C43.3959 33.9272 42.4356 35.0184 40.9951 35.0184C39.5328 35.0184 38.5725 33.9272 38.5725 32.2684Z" fill="white" fill-opacity="0.75"></path><path d="M49.6765 25.1534C50.7242 25.1534 51.5754 24.3023 51.5754 23.2328C51.5754 22.1634 50.7242 21.334 49.6765 21.334C48.6071 21.334 47.7559 22.1634 47.7559 23.2328C47.7559 24.3023 48.6071 25.1534 49.6765 25.1534ZM47.9742 37.7685H51.3571V26.8558H47.9742V37.7685Z" fill="white" fill-opacity="0.75"></path><path d="M53.3262 43.0063H56.6437V36.677C57.2766 37.5063 58.7171 38.0738 60.2231 38.0738C63.475 38.0738 65.4393 35.5857 65.352 32.1373C65.2647 28.6234 63.235 26.5063 60.2012 26.5063C58.6516 26.5063 57.1893 27.1829 56.5782 28.1869L56.4036 26.8555H53.3262V43.0063ZM56.7092 32.3119C56.7092 30.675 57.8004 29.5837 59.3719 29.5837C60.9651 29.5837 61.9691 30.6968 61.9691 32.3119C61.9691 33.927 60.9651 35.0401 59.3719 35.0401C57.8004 35.0401 56.7092 33.9488 56.7092 32.3119Z" fill="white" fill-opacity="0.75"></path><path d="M65.7109 34.3198C65.7982 36.5242 67.5442 38.052 70.2942 38.052C72.9351 38.052 74.7684 36.6551 74.7684 34.4071C74.7684 32.792 73.8081 31.7226 72.0184 31.2861L70.076 30.8059C69.3775 30.6313 68.941 30.4567 68.941 29.8893C68.941 29.3218 69.3994 28.9508 70.076 28.9508C70.8398 28.9508 71.3418 29.4527 71.32 30.1948H74.3537C74.2664 27.925 72.5422 26.5063 70.1414 26.5063C67.7188 26.5063 65.9073 27.9468 65.9073 30.1293C65.9073 31.5916 66.7148 32.792 68.8756 33.3595L70.7962 33.8615C71.3636 34.0143 71.6037 34.2762 71.6037 34.6472C71.6037 35.1928 71.1017 35.542 70.2506 35.542C69.2684 35.542 68.7446 35.0837 68.7446 34.3198H65.7109Z" fill="white" fill-opacity="0.75"></path><path d="M79.9123 38.0525C81.2437 38.0525 82.575 37.4413 83.2516 36.5465L83.4699 37.7687H86.6346V26.856H83.2734V32.5306C83.2734 34.1675 82.7933 35.0624 81.2437 35.0624C80.0433 35.0624 79.2576 34.5167 79.2576 32.487V26.856H75.8965V33.7092C75.8965 36.3064 77.3369 38.0525 79.9123 38.0525Z" fill="white" fill-opacity="0.75"></path><path d="M91.965 37.7686V31.8103C91.965 29.977 92.9471 29.4531 93.9074 29.4531C94.9769 29.4531 95.6753 30.1079 95.6753 31.4611V37.7686H98.9927V31.8103C98.9927 29.9551 99.9531 29.4313 100.913 29.4313C101.983 29.4313 102.703 30.0861 102.703 31.4611V37.7686H105.977V30.6317C105.977 28.1436 104.667 26.4849 101.852 26.4849C100.281 26.4849 98.9927 27.2488 98.4253 28.4274C97.7705 27.2488 96.6356 26.4849 94.8241 26.4849C93.6237 26.4849 92.5106 27.0305 91.8558 27.9035L91.7249 26.8559H88.582V37.7686H91.965Z" fill="white" fill-opacity="0.75"></path></g><defs><clipPath id="clip0_2868_604"><rect width="126" height="44" fill="white" transform="translate(0 0.333984)"></rect></clipPath></defs></svg>