<svg xmlns="http://www.w3.org/2000/svg" width="100" height="52" viewBox="0 0 100 52" fill="none"><path d="M2.58594 30.3506H5.41886V44.2413H2.58594V30.3506Z" fill="white" fill-opacity="0.75"></path><path d="M7.06077 39.4817C7.0589 38.484 7.35305 37.5081 7.906 36.6776C8.45895 35.8471 9.24584 35.1993 10.1671 34.8162C11.0883 34.4331 12.1025 34.3319 13.0813 34.5254C14.0601 34.7189 14.9595 35.1984 15.6656 35.9033C16.3718 36.6081 16.853 37.5066 17.0483 38.485C17.2437 39.4634 17.1444 40.4778 16.763 41.3998C16.3816 42.3217 15.7353 43.1098 14.9058 43.6643C14.0764 44.2189 13.1011 44.5148 12.1034 44.5148C11.4398 44.5224 10.7815 44.3975 10.1669 44.1473C9.55232 43.8972 8.99383 43.5269 8.52419 43.0581C8.05455 42.5894 7.6832 42.0316 7.43191 41.4174C7.18062 40.8033 7.05444 40.1452 7.06077 39.4817ZM14.2941 39.4817C14.283 39.051 14.1451 38.6331 13.8977 38.2804C13.6503 37.9276 13.3044 37.6557 12.9032 37.4985C12.502 37.3413 12.0634 37.306 11.6423 37.3968C11.2211 37.4876 10.8361 37.7006 10.5353 38.0091C10.2346 38.3176 10.0315 38.708 9.95144 39.1314C9.87139 39.5547 9.91797 39.9923 10.0853 40.3893C10.2527 40.7863 10.5334 41.1252 10.8923 41.3635C11.2513 41.6018 11.6725 41.729 12.1034 41.7291C12.3981 41.7374 12.6914 41.6845 12.9647 41.5737C13.238 41.4629 13.4854 41.2967 13.6913 41.0855C13.8971 40.8743 14.057 40.6228 14.1607 40.3468C14.2645 40.0707 14.3099 39.7762 14.2941 39.4817Z" fill="white" fill-opacity="0.75"></path><path d="M28.5355 34.7225V43.7689C28.5355 46.9701 26.0331 48.3205 23.5024 48.3205C22.6125 48.3867 21.7215 48.2067 20.927 47.8003C20.1325 47.3939 19.4652 46.7767 18.9981 46.0164L21.4344 44.6094C21.6277 44.999 21.9336 45.3217 22.3124 45.5355C22.6912 45.7493 23.1255 45.8445 23.5591 45.8086C23.8443 45.8562 24.1367 45.8376 24.4137 45.7542C24.6907 45.6709 24.9448 45.5251 25.1565 45.328C25.3681 45.1309 25.5317 44.8878 25.6346 44.6175C25.7375 44.3472 25.7769 44.0569 25.7498 43.7689V42.8907C25.4168 43.3005 24.9918 43.626 24.5095 43.8409C24.0272 44.0558 23.501 44.1541 22.9736 44.1278C21.6913 44.1278 20.4616 43.6184 19.5548 42.7117C18.6481 41.805 18.1387 40.5752 18.1387 39.2929C18.1387 38.0106 18.6481 36.7809 19.5548 35.8742C20.4616 34.9675 21.6913 34.4581 22.9736 34.4581C23.5007 34.434 24.0261 34.5333 24.5081 34.748C24.9901 34.9628 25.4153 35.2871 25.7498 35.6951V34.7508L28.5355 34.7225ZM25.7498 39.2929C25.7687 38.8337 25.6497 38.3793 25.4083 37.9881C25.1668 37.597 24.8139 37.287 24.3949 37.0981C23.9759 36.9091 23.5099 36.8498 23.0569 36.9278C22.6039 37.0057 22.1846 37.2174 21.8529 37.5355C21.5211 37.8537 21.2921 38.2638 21.1953 38.7131C21.0984 39.1624 21.1382 39.6305 21.3095 40.057C21.4808 40.4836 21.7757 40.8491 22.1564 41.1067C22.5371 41.3644 22.9861 41.5022 23.4457 41.5026C23.7458 41.5238 24.0469 41.482 24.3297 41.3797C24.6126 41.2774 24.8709 41.1171 25.088 40.9089C25.305 40.7007 25.4761 40.4493 25.5901 40.171C25.7041 39.8927 25.7585 39.5936 25.7498 39.2929Z" fill="white" fill-opacity="0.75"></path><path d="M30.1682 39.4817C30.1663 38.484 30.4605 37.5081 31.0134 36.6776C31.5664 35.8471 32.3533 35.1993 33.2745 34.8162C34.1957 34.4331 35.2099 34.3319 36.1887 34.5254C37.1675 34.7189 38.0669 35.1984 38.7731 35.9033C39.4792 36.6081 39.9604 37.5066 40.1558 38.485C40.3511 39.4634 40.2518 40.4778 39.8704 41.3998C39.489 42.3217 38.8427 43.1098 38.0133 43.6643C37.1838 44.2189 36.2085 44.5148 35.2108 44.5148C34.5473 44.5224 33.8889 44.3975 33.2743 44.1473C32.6597 43.8972 32.1012 43.5269 31.6316 43.0581C31.162 42.5894 30.7906 42.0316 30.5393 41.4174C30.288 40.8033 30.1618 40.1452 30.1682 39.4817ZM37.4016 39.4817C37.3904 39.051 37.2525 38.6331 37.0051 38.2804C36.7577 37.9276 36.4118 37.6557 36.0106 37.4985C35.6095 37.3413 35.1709 37.306 34.7497 37.3968C34.3285 37.4876 33.9435 37.7006 33.6427 38.0091C33.342 38.3176 33.1389 38.708 33.0588 39.1314C32.9788 39.5547 33.0254 39.9923 33.1927 40.3893C33.3601 40.7863 33.6408 41.1252 33.9997 41.3635C34.3587 41.6018 34.7799 41.729 35.2108 41.7291C35.504 41.7347 35.7952 41.6799 36.0663 41.5679C36.3373 41.4559 36.5824 41.2893 36.7862 41.0784C36.99 40.8676 37.1481 40.6169 37.2508 40.3422C37.3534 40.0675 37.3983 39.7745 37.3827 39.4817H37.4016Z" fill="white" fill-opacity="0.75"></path><path d="M41.5664 32.1732C41.5664 31.8333 41.6672 31.501 41.856 31.2184C42.0449 30.9358 42.3133 30.7155 42.6273 30.5854C42.9414 30.4553 43.2869 30.4213 43.6203 30.4876C43.9537 30.5539 44.2599 30.7176 44.5003 30.9579C44.7407 31.1983 44.9043 31.5045 44.9706 31.8379C45.037 32.1713 45.0029 32.5169 44.8729 32.8309C44.7428 33.1449 44.5225 33.4134 44.2399 33.6022C43.9572 33.791 43.625 33.8918 43.285 33.8918C42.83 33.8894 42.3943 33.7075 42.0725 33.3857C41.7507 33.064 41.5689 32.6283 41.5664 32.1732ZM41.8591 34.7228H44.692V44.2414H41.8591V34.7228Z" fill="white" fill-opacity="0.75"></path><path d="M57.0438 39.4819C57.0781 40.1111 56.9877 40.7409 56.7777 41.335C56.5676 41.9291 56.2422 42.4758 55.82 42.9436C55.3978 43.4114 54.8873 43.7911 54.3178 44.0608C53.7483 44.3305 53.1311 44.4849 52.5017 44.5151C51.9733 44.5404 51.4457 44.4496 50.9563 44.2489C50.4668 44.0482 50.0273 43.7426 49.6688 43.3536V48.0751H46.8359V34.7226H49.6688V35.6197C50.0273 35.2307 50.4668 34.9251 50.9563 34.7244C51.4457 34.5237 51.9733 34.4329 52.5017 34.4582C53.1303 34.4884 53.7467 34.6425 54.3155 34.9116C54.8844 35.1808 55.3945 35.5596 55.8165 36.0264C56.2386 36.4932 56.5642 37.0387 56.7748 37.6317C56.9855 38.2247 57.0769 38.8535 57.0438 39.4819ZM54.2109 39.4819C54.1997 39.0387 54.0587 38.6085 53.8054 38.2446C53.5521 37.8808 53.1977 37.5991 52.786 37.4347C52.3743 37.2702 51.9233 37.2301 51.4891 37.3194C51.0548 37.4086 50.6562 37.6233 50.3427 37.9368C50.0292 38.2503 49.8146 38.6488 49.7253 39.0831C49.6361 39.5174 49.6762 39.9683 49.8406 40.38C50.0051 40.7917 50.2867 41.1462 50.6506 41.3994C51.0145 41.6527 51.4447 41.7937 51.8879 41.8049C52.1972 41.8246 52.5071 41.7778 52.7969 41.6678C53.0866 41.5577 53.3494 41.3869 53.5677 41.1669C53.7859 40.9468 53.9546 40.6826 54.0623 40.392C54.1699 40.1014 54.2142 39.7911 54.192 39.4819H54.2109Z" fill="white" fill-opacity="0.75"></path><path d="M65.8635 41.3895C65.8635 43.5803 63.9749 44.5151 61.8974 44.5151C61.0675 44.5886 60.2346 44.412 59.5059 44.0081C58.7773 43.6042 58.1861 42.9915 57.8086 42.2488L60.2827 40.8418C60.3831 41.1853 60.5981 41.4841 60.8918 41.6885C61.1856 41.8929 61.5404 41.9907 61.8974 41.9655C62.5868 41.9655 62.9267 41.7483 62.9267 41.3706C62.9267 40.3224 58.2052 40.8796 58.2052 37.5934C58.2052 35.5159 59.9616 34.4677 61.9824 34.4677C62.7281 34.4451 63.4663 34.6222 64.1205 34.9809C64.7747 35.3395 65.321 35.8666 65.703 36.5074L63.2195 37.8106C63.1098 37.5612 62.93 37.349 62.702 37.1998C62.474 37.0506 62.2077 36.9708 61.9352 36.9701C61.4442 36.9701 61.142 37.159 61.142 37.5084C61.1798 38.5943 65.8635 37.8672 65.8635 41.3895Z" fill="white" fill-opacity="0.75"></path><path d="M76.2884 34.7227V44.2413H73.4554V43.3537C73.1259 43.7481 72.7077 44.0589 72.235 44.2608C71.7624 44.4627 71.2486 44.5498 70.7358 44.5152C68.8472 44.5152 67.1758 43.1459 67.1758 40.568V34.7227H70.0087V40.1525C69.9838 40.3839 70.0108 40.6179 70.0876 40.8376C70.1644 41.0573 70.2891 41.2571 70.4528 41.4226C70.6164 41.5881 70.8149 41.715 71.0337 41.7942C71.2525 41.8735 71.4863 41.9029 71.7179 41.8806C72.7567 41.8806 73.4838 41.2762 73.4838 39.9259V34.7227H76.2884Z" fill="white" fill-opacity="0.75"></path><path d="M92.663 38.4051V44.2409H89.83V38.6507C89.83 37.7064 89.3673 37.0831 88.4608 37.0831C87.5543 37.0831 86.9688 37.7536 86.9688 38.8773V44.2409H84.1359V38.6507C84.1359 37.7064 83.6826 37.0831 82.7666 37.0831C81.8507 37.0831 81.2841 37.7536 81.2841 38.8773V44.2409H78.4512V34.7224H81.2841V35.6006C81.5802 35.2127 81.9685 34.905 82.4138 34.7055C82.8591 34.5059 83.3472 34.4208 83.8337 34.458C84.3223 34.4342 84.8088 34.5375 85.2456 34.7575C85.6825 34.9776 86.0549 35.3071 86.3267 35.7139C86.6427 35.2886 87.0614 34.9503 87.5436 34.7307C88.0258 34.5111 88.5558 34.4172 89.084 34.458C91.2371 34.458 92.663 36.0255 92.663 38.4051Z" fill="white" fill-opacity="0.75"></path><path d="M95.0801 34.666C96.2483 34.666 97.1953 33.7189 97.1953 32.5507C97.1953 31.3825 96.2483 30.4355 95.0801 30.4355C93.9119 30.4355 92.9648 31.3825 92.9648 32.5507C92.9648 33.7189 93.9119 34.666 95.0801 34.666Z" fill="white" fill-opacity="0.75"></path><path d="M34.6441 23.1455C40.1149 23.1455 44.5498 18.7105 44.5498 13.2397C44.5498 7.76894 40.1149 3.33398 34.6441 3.33398C29.1733 3.33398 24.7383 7.76894 24.7383 13.2397C24.7383 18.7105 29.1733 23.1455 34.6441 23.1455Z" fill="white" fill-opacity="0.75"></path><path d="M56.7886 23.1455C62.2594 23.1455 66.6943 18.7105 66.6943 13.2397C66.6943 7.76894 62.2594 3.33398 56.7886 3.33398C51.3178 3.33398 46.8828 7.76894 46.8828 13.2397C46.8828 18.7105 51.3178 23.1455 56.7886 23.1455Z" fill="white" fill-opacity="0.75"></path><path d="M22.4056 3.33398H2.60352V23.136H22.4056V3.33398Z" fill="white" fill-opacity="0.75"></path></svg>