<svg xmlns="http://www.w3.org/2000/svg" width="70" height="45" viewBox="0 0 70 45" fill="none"><g clip-path="url(#clip0_2868_1100)"><path d="M65.5276 5.74257C65.5276 5.79387 65.5276 5.858 65.5145 5.89648C65.4489 6.39669 65.4489 6.8969 65.4882 7.40994C65.5145 7.5382 65.5407 7.66646 65.6457 7.76907C65.8162 7.96145 66.0785 7.92298 66.1835 7.69211C66.236 7.57668 66.236 7.46124 66.2097 7.34581C66.0785 6.85842 66.0523 6.34539 66.0392 5.84517C66.0392 5.81952 66.0392 5.78104 66.0392 5.74257C66.1835 5.72974 66.3147 5.71691 66.4327 5.71691C66.5246 5.70409 66.6033 5.69126 66.6689 5.65278C66.8656 5.55018 66.8656 5.33214 66.6557 5.22953C66.577 5.19105 66.4721 5.17822 66.3803 5.17822C66.0523 5.19105 65.7244 5.19105 65.3964 5.19105C65.2784 5.19105 65.1603 5.20388 65.0422 5.2167C64.9766 5.22953 64.8979 5.22953 64.8455 5.26801C64.7536 5.30648 64.7012 5.37061 64.7012 5.46039C64.7143 5.55018 64.7536 5.60148 64.8455 5.63996C64.8979 5.67844 64.9635 5.69126 65.0291 5.69126C65.1865 5.70409 65.3571 5.72974 65.5276 5.74257ZM69.135 6.33256C69.135 6.34539 69.1481 6.35821 69.1481 6.35821C69.2006 6.70451 69.2531 7.03799 69.2924 7.37146C69.3056 7.48689 69.3187 7.5895 69.3974 7.67928C69.5679 7.89732 69.8303 7.87167 69.9483 7.64081C70.0008 7.52537 70.0139 7.40994 69.9877 7.28168C69.909 6.8969 69.8696 6.51212 69.7909 6.14017C69.7384 5.9093 69.6729 5.69126 69.6073 5.48605C69.5679 5.35779 69.4761 5.268 69.3187 5.25518C69.1613 5.22953 69.0432 5.30648 68.9776 5.42192C68.8989 5.52452 68.8333 5.62713 68.7808 5.74257C68.689 5.94778 68.6103 6.153 68.5054 6.34539C68.4922 6.39669 68.4791 6.43517 68.4529 6.47364C68.4398 6.44799 68.4267 6.43517 68.4267 6.43517C68.2561 6.11452 68.0987 5.79387 67.9282 5.48605C67.9019 5.46039 67.8888 5.43474 67.8757 5.40909C67.797 5.29366 67.7052 5.22953 67.5609 5.22953C67.4297 5.24235 67.3247 5.31931 67.2592 5.43474C67.2329 5.48605 67.2329 5.52452 67.2198 5.57583C67.1673 5.98626 67.1017 6.39669 67.0493 6.80712C67.023 7.03799 67.0099 7.26885 67.0099 7.49972C66.9968 7.55102 67.0099 7.61515 67.0361 7.66646C67.0624 7.76906 67.1411 7.8332 67.246 7.84602C67.3772 7.85885 67.469 7.82037 67.5084 7.71776C67.5477 7.64081 67.5609 7.57668 67.574 7.51255C67.6265 7.28168 67.6658 7.06364 67.7052 6.8456C67.7314 6.71734 67.7445 6.61473 67.7839 6.47364C67.8101 6.52495 67.8363 6.56343 67.8626 6.6019C67.9806 6.75582 68.0987 6.90973 68.243 7.03799C68.3873 7.14059 68.5054 7.12777 68.6234 7.01233C68.6497 6.98668 68.6628 6.97386 68.689 6.9482C68.8071 6.76864 68.9514 6.58908 69.0694 6.40951C69.0957 6.38386 69.1088 6.35821 69.135 6.33256Z" fill="white" fill-opacity="0.75"></path><path d="M38.9086 5.99427C38.8174 6.23802 38.8 6.41363 38.8421 6.55959C38.8886 6.75807 39.0093 6.82305 39.1731 6.77257C40.7139 6.40004 44.0926 7.45744 45.3435 7.75215C45.6385 7.81403 45.8785 7.44168 45.6772 7.10784C45.3834 6.78454 42.0062 5.40037 40.7176 5.3249C40.2125 5.29699 39.3095 5.17035 38.9086 5.99427Z" fill="white" fill-opacity="0.75"></path><path d="M52.1135 1.51375C52.2777 1.60642 52.3695 1.69482 52.4148 1.79359C52.4823 1.92315 52.4467 2.01279 52.3333 2.05853C51.3148 2.54455 49.9595 4.63696 49.4124 5.35861C49.2798 5.52462 48.9739 5.42815 48.9277 5.15515C48.9372 4.84647 50.1386 2.57574 50.8091 1.95727C51.0726 1.7158 51.5079 1.24201 52.1135 1.51375Z" fill="white" fill-opacity="0.75"></path><path d="M44.0017 0.48378C44.199 0.338403 44.404 0.287459 44.5087 0.381936C46.0454 1.66688 46.8603 3.70171 47.3649 5.56455C47.3839 5.60795 47.3851 5.67023 47.3699 5.7352C47.3636 5.79073 47.3221 5.84939 47.2562 5.89478C47.1858 5.94489 47.1252 5.96015 47.0967 5.91697C46.4232 5.0213 42.5765 1.5364 44.0017 0.48378Z" fill="white" fill-opacity="0.75"></path><path d="M11.461 22.7614C11.8293 22.4933 12.2297 22.2701 12.6534 22.0969C13.0967 21.973 13.5692 21.9935 13.9995 22.1555C14.4297 22.3175 14.7944 22.612 15.0382 22.9946C15.2563 23.3762 15.3416 23.8168 15.2814 24.25C15.2212 24.6831 15.0187 25.0854 14.7043 25.3963C14.4606 25.6483 14.1839 25.8678 13.8816 26.0492C12.5342 26.9003 11.1748 27.7047 9.81547 28.5558C9.53732 28.7688 9.24225 28.9599 8.93308 29.1271C8.46281 29.3564 7.92537 29.4178 7.41368 29.3007C6.902 29.1837 6.44826 28.8954 6.13092 28.4859C5.89369 28.1959 5.69348 27.8788 5.53471 27.5415C4.24691 24.895 2.91142 22.2601 1.67131 19.5669C1.09895 18.4011 0.633913 17.0603 0.180798 15.7662C-0.0152406 15.3902 -0.0535225 14.9543 0.0741037 14.5511C0.20173 14.1479 0.485195 13.8093 0.864201 13.6073C1.24321 13.4053 1.68785 13.3559 2.10357 13.4695C2.51929 13.5831 2.87329 13.8508 3.09027 14.2156C3.75722 15.0822 4.34761 16.0027 4.85504 16.9671C6.14284 19.2988 7.37103 21.6305 8.61113 23.8923C8.68334 24.0173 8.76296 24.1379 8.84961 24.2537C9.783 23.87 10.6609 23.3683 11.461 22.7614Z" fill="white" fill-opacity="0.75"></path><path d="M24.7756 21.9482C21.8304 25.3175 16.8938 24.4664 14.4136 20.1294C12.6488 17.0515 12.3388 11.9683 16.1784 8.76218C16.9983 8.09095 17.9787 7.6337 19.0282 7.43308C20.315 7.25271 21.6272 7.47467 22.7772 8.06725C23.9272 8.65983 24.8562 9.59268 25.4315 10.7325C27.5301 14.4633 27.232 19.22 24.7756 21.9482ZM23.5832 14.0902C23.2703 13.1734 22.6426 12.3907 21.8065 11.875C21.3334 11.5453 20.7585 11.385 20.1787 11.4211C19.5988 11.4572 19.0494 11.6875 18.6228 12.0732C16.9177 13.5539 16.5599 17.0632 17.8 19.1501C17.9581 19.4904 18.1902 19.7928 18.4803 20.0362C18.7704 20.2796 19.1114 20.4581 19.4794 20.5591C19.8474 20.6602 20.2335 20.6814 20.6108 20.6213C20.9881 20.5611 21.3473 20.4211 21.6635 20.211C22.5878 19.5103 23.2659 18.5455 23.6035 17.4507C23.9412 16.3558 23.9216 15.1853 23.5475 14.1019L23.5832 14.0902Z" fill="white" fill-opacity="0.75"></path><path d="M36.7949 15.5591C36.4934 15.6225 36.1819 15.6263 35.8788 15.5702C35.5758 15.5141 35.2872 15.3994 35.0302 15.2327C34.8053 15.1069 34.6117 14.934 34.4633 14.7263C34.315 14.5186 34.2156 14.2814 34.1723 14.0316C34.1289 13.7819 34.1428 13.5259 34.2127 13.282C34.2827 13.0381 34.4072 12.8124 34.5771 12.6211C34.8731 12.2367 35.2933 11.9615 35.7695 11.84C37.0128 11.4872 38.2927 11.2721 39.5852 11.1988C39.8692 11.1665 40.1569 11.19 40.4314 11.2679C40.706 11.3459 40.9618 11.4766 41.184 11.6526C41.4061 11.8285 41.5901 12.0461 41.7251 12.2925C41.86 12.5389 41.9433 12.8092 41.97 13.0875C42.3426 14.4545 42.3834 15.8878 42.0892 17.273C41.0161 21.7499 37.3196 23.2888 33.17 21.8548C32.0052 21.4714 30.9839 20.757 30.2367 19.8029C29.2401 18.6539 28.5335 17.2922 28.1738 15.8273C27.8824 14.5228 27.9143 13.1692 28.267 11.8793C28.6196 10.5894 29.2827 9.40063 30.2009 8.41233C31.0723 7.33816 32.2033 6.49279 33.492 5.95234C34.3063 5.51349 35.2592 5.38871 36.163 5.60258C36.368 5.65806 36.5541 5.76616 36.702 5.91567C36.8499 6.06519 36.9542 6.25066 37.0041 6.45287C37.054 6.65507 37.0476 6.86664 36.9857 7.06564C36.9237 7.26463 36.8085 7.4438 36.6519 7.58456C36.3541 7.84811 36.0306 8.08241 35.686 8.28408C34.6259 8.94415 33.7034 9.7947 32.9673 10.7907C32.4848 11.4352 32.1525 12.1753 31.9939 12.9588C31.8352 13.7423 31.8541 14.5503 32.0492 15.326C32.3196 16.3836 32.9197 17.3329 33.7662 18.0424C36.3895 20.3742 39.7998 18.124 39.2036 14.9412C38.3332 15.1511 37.57 15.3726 36.7949 15.5591Z" fill="white" fill-opacity="0.75"></path><path d="M52.8215 22.1347C48.9462 24.4665 44.5343 22.1347 43.5684 17.2381C42.8649 13.7405 44.2004 8.84378 48.8747 6.97839C49.8692 6.59004 50.9479 6.45369 52.0107 6.58199C53.2876 6.81054 54.459 7.42517 55.3596 8.33924C56.2602 9.2533 56.8448 10.4207 57.0307 11.6769C57.8177 15.839 56.0291 20.281 52.8215 22.1347ZM54.169 14.2884C54.1678 13.3199 53.8174 12.3827 53.1793 11.6419C52.8382 11.1837 52.3451 10.8554 51.7841 10.7129C51.223 10.5705 50.6289 10.6227 50.1028 10.8608C48.0042 11.7468 46.5256 14.9646 47.0622 17.3314C47.1032 17.7028 47.2266 18.061 47.4239 18.3809C47.6212 18.7008 47.8876 18.9747 48.2045 19.1835C48.5213 19.3922 48.881 19.5308 49.2583 19.5895C49.6357 19.6481 50.0216 19.6255 50.389 19.5232C51.4983 19.1443 52.4588 18.4362 53.1364 17.4977C53.8141 16.5592 54.1751 15.4372 54.169 14.2884Z" fill="white" fill-opacity="0.75"></path><path d="M60.9503 23.114C60.8918 23.5407 60.6624 23.9272 60.3124 24.1885C59.9624 24.4497 59.5206 24.5644 59.0842 24.5072C58.6478 24.45 58.2525 24.2256 57.9853 23.8834C57.718 23.5413 57.6008 23.1093 57.6593 22.6826C57.7178 22.2559 57.9473 21.8694 58.2972 21.6081C58.6472 21.3468 59.089 21.2322 59.5254 21.2894C59.9618 21.3466 60.3571 21.5709 60.6244 21.9131C60.8916 22.2553 61.0089 22.6873 60.9503 23.114ZM59.9129 7.38639C60.1397 7.04774 60.4724 6.78985 60.8614 6.65118C61.2503 6.51251 61.6747 6.50049 62.0712 6.61692C62.4743 6.71553 62.8304 6.94654 63.0801 7.27127C63.3297 7.59601 63.4576 7.99474 63.4425 8.4007C63.3899 9.05187 63.2903 9.6986 63.1444 10.336C62.7509 12.4929 62.3693 14.6497 61.952 16.7833C61.7612 17.6344 61.5108 18.4505 61.2365 19.3132C61.1411 19.5829 60.9817 19.8266 60.7715 20.0244C60.6408 20.1732 60.4739 20.2873 60.2861 20.3562C60.0983 20.4252 59.8958 20.4467 59.6973 20.4188C59.4988 20.3909 59.3106 20.3145 59.1503 20.1967C58.99 20.0788 58.8627 19.9233 58.7802 19.7446C58.6384 19.424 58.5614 19.0795 58.5536 18.7303C58.5536 17.2846 58.5536 15.8273 58.649 14.3699C58.8111 12.2901 59.1299 10.2248 59.6029 8.19084C59.6586 7.91834 59.7635 7.65775 59.9129 7.42137V7.38639Z" fill="white" fill-opacity="0.75"></path><path fill-rule="evenodd" clip-rule="evenodd" d="M6.42312 32.4826C6.28233 32.7899 6.24372 33.1325 6.31252 33.4622C6.35829 33.8968 6.45882 34.3243 6.61182 34.7349C6.80284 35.2377 7.01659 35.7349 7.28015 36.3477C7.34076 36.4887 7.4041 36.6359 7.47038 36.7908C7.8258 37.621 8.27176 38.682 8.86661 40.2175C9.03498 40.6537 9.18449 41.0935 9.33505 41.5363C9.39587 41.7152 9.45691 41.8947 9.51939 42.0746C9.74335 42.7142 10.1287 43.2888 10.6395 43.7442C10.8564 43.9945 11.1441 44.1769 11.4667 44.2681C11.7956 44.3611 12.1454 44.3552 12.4708 44.2512C12.7962 44.1471 13.082 43.9497 13.2911 43.6846C13.4961 43.4247 13.618 43.1115 13.6417 42.7843C13.7747 42.1469 13.7293 41.486 13.5101 40.8715C13.1622 39.8512 12.7659 38.8294 12.3089 37.83L12.3068 37.8256C11.555 36.262 10.7908 34.7092 9.99045 33.1558L9.98446 33.1449C9.75016 32.7402 9.44567 32.3784 9.08467 32.0758C8.85031 31.8057 8.52704 31.6235 8.17004 31.5607C7.80543 31.4966 7.42939 31.5612 7.10905 31.7431C6.80601 31.9123 6.56579 32.1712 6.42312 32.4826Z" fill="white" fill-opacity="0.75"></path><path fill-rule="evenodd" clip-rule="evenodd" d="M17.9064 28.6325C16.7276 28.334 15.4965 28.2905 14.2989 28.5051C13.3713 28.5944 12.459 28.8036 11.8255 29.218C11.5033 29.4289 11.2428 29.6997 11.0979 30.0439C10.9522 30.39 10.9336 30.7858 11.053 31.2268C11.271 32.0346 11.5541 32.82 11.8362 33.6029L11.8819 33.7297L11.883 33.7325C12.7324 36.0069 13.5899 38.2736 14.4552 40.5325C14.5561 40.8885 14.6988 41.2319 14.8804 41.5558L14.8838 41.5618C15.1237 41.9642 15.4314 42.3241 15.7939 42.6264C15.9752 42.7926 16.1994 42.9076 16.4425 42.959C16.688 43.0108 16.9433 42.9958 17.1806 42.9154C17.418 42.8351 17.6282 42.6926 17.7884 42.5034C17.946 42.3173 18.0492 42.0931 18.0871 41.8545C18.2435 41.2063 18.1934 40.5268 17.9434 39.9072C17.8654 39.6987 17.8042 39.4856 17.7397 39.2613C17.7182 39.1865 17.6964 39.1104 17.6734 39.0329C19.6541 38.2759 21.7616 37.258 22.5027 34.89C22.7929 34.0717 22.8171 33.1856 22.5719 32.3532C22.3265 31.5199 21.823 30.7813 21.1308 30.2391C20.1887 29.4801 19.0882 28.9317 17.9064 28.6325ZM14.6389 31.537C14.6779 31.526 14.7172 31.5158 14.7566 31.5063C16.0461 31.3081 17.3654 31.5722 18.4716 32.2498C18.9591 32.5813 19.1588 32.9496 19.1931 33.304C19.2285 33.6689 19.0928 34.0643 18.8202 34.4444C18.3051 35.1624 17.3651 35.7371 16.516 35.8442C15.897 34.4504 15.2684 33.0002 14.6389 31.537Z" fill="white" fill-opacity="0.75"></path><path d="M25.7637 26.0813C27.1675 25.4474 28.9064 25.3379 30.2671 25.7836C30.6098 25.8812 30.9071 26.0923 31.1082 26.3808C31.308 26.6675 31.4002 27.013 31.3694 27.3584C31.3674 27.5826 31.3111 27.8032 31.2052 28.0022C31.0974 28.2048 30.9413 28.379 30.7501 28.5102C30.5589 28.6413 30.3382 28.7256 30.1067 28.7557C29.8751 28.7859 29.6396 28.7611 29.4199 28.6834L29.4032 28.6775L29.3875 28.6694C29.2751 28.6119 29.1557 28.5686 29.0322 28.5404L29.0244 28.5387C28.0672 28.2901 27.1643 28.702 26.8345 29.2081C26.6772 29.4494 26.6577 29.693 26.7887 29.9146C26.929 30.1519 27.2731 30.4182 27.9694 30.608C28.1609 30.6594 28.3572 30.709 28.5563 30.7594C29.1069 30.8988 29.6791 31.0436 30.2324 31.2443L30.2345 31.2451C32.7871 32.1947 33.7376 34.1614 33.4122 36.0112C33.0903 37.8405 31.5278 39.5053 29.1781 39.898C28.3231 40.0833 27.4333 40.0472 26.5968 39.7933C25.7582 39.5386 25.0023 39.0739 24.4042 38.4451L24.3886 38.4287C24.1998 38.1918 24.0728 37.9135 24.0165 37.6182C23.9647 37.3517 23.992 37.0763 24.095 36.8244C24.1974 36.574 24.3706 36.3573 24.5941 36.1994C24.8302 36.0204 25.1148 35.913 25.4127 35.8906C25.7096 35.8683 26.0067 35.9314 26.2674 36.072C26.5278 36.195 26.77 36.3519 26.9874 36.5385L26.9915 36.5419C27.3761 36.8858 27.8414 36.9754 28.2876 36.8924C28.7403 36.8082 29.166 36.5463 29.4398 36.1988C29.7118 35.8535 29.821 35.4433 29.6914 35.0451C29.561 34.644 29.1689 34.1946 28.3074 33.8189C28.0822 33.7254 27.8487 33.65 27.6058 33.5766C27.5403 33.5568 27.4737 33.5371 27.4063 33.5171C27.2267 33.4638 27.0419 33.4089 26.8607 33.3484C26.7359 33.3068 26.6121 33.2674 26.4895 33.2283C26.1544 33.1216 25.8277 33.0176 25.5133 32.8781C24.829 32.6503 24.2378 32.2129 23.8277 31.6306C23.4159 31.046 23.2087 30.3469 23.2369 29.6377C23.2391 27.9094 24.3524 26.7187 25.7637 26.0813Z" fill="white" fill-opacity="0.75"></path><path d="M43.5612 25.8974C43.289 25.7674 42.988 25.7057 42.6854 25.7178C42.3827 25.73 42.0879 25.8156 41.8276 25.9671C41.5689 26.1175 41.3523 26.3281 41.1971 26.5802C41.0548 26.7925 40.9563 27.0299 40.9072 27.2792C40.8581 27.5283 40.8593 27.7843 40.9106 28.0328C40.9613 28.3522 41.0175 28.6628 41.073 28.9691C41.1649 29.476 41.2543 29.9715 41.3133 30.4767L41.3155 30.4895C41.4498 31.2818 41.5201 32.0831 41.5264 32.8861L41.527 32.8975C41.5729 33.7647 41.2707 34.615 40.6852 35.268L40.6759 35.2796C40.4854 35.5183 40.2307 35.7005 39.9402 35.8058C39.6498 35.9111 39.3352 35.9353 39.0315 35.8757C38.7278 35.8161 38.4471 35.6751 38.2207 35.4684C37.9943 35.2617 37.831 34.9967 37.7495 34.7046C37.5755 34.0889 37.4748 33.4556 37.4492 32.8174L37.7464 28.1911C37.7508 28.1307 37.7558 28.0687 37.7609 28.0061C37.7722 27.8656 37.7838 27.7225 37.7886 27.589C37.7956 27.3926 37.7896 27.1906 37.7428 26.9994C37.6949 26.804 37.6038 26.6181 37.4422 26.4598C37.2822 26.3031 37.0662 26.1875 36.7944 26.1088C36.3029 25.9697 35.8873 25.9741 35.541 26.1178C35.1945 26.2615 34.9571 26.5283 34.7891 26.8365C34.6224 27.1421 34.5153 27.5039 34.4343 27.8663C34.3742 28.1352 34.3259 28.4175 34.28 28.6862C34.2641 28.7788 34.2486 28.8697 34.2329 28.958L34.2325 28.9606C33.9869 30.4342 33.9138 31.9304 34.0146 33.4202C34.0334 34.2253 34.2051 35.02 34.5211 35.7637C34.8776 36.7233 35.5233 37.5547 36.373 38.1482C37.2245 38.7429 38.2406 39.0706 39.2868 39.0879C40.333 39.1052 41.3599 38.8113 42.2315 38.2452C43.1017 37.6799 43.7761 36.8697 44.1655 35.9218C44.7102 34.7143 44.966 33.4011 44.9132 32.0823C44.8812 31.1195 44.8276 30.1493 44.7743 29.184C44.7481 28.7105 44.722 28.238 44.6986 27.7684C44.6868 27.2975 44.528 26.8414 44.2434 26.4613C44.0673 26.221 43.8329 26.0272 43.5612 25.8974Z" fill="white" fill-opacity="0.75"></path><path d="M53.197 33.1512C53.1694 33.1855 53.1403 33.221 53.1099 33.2579C52.8885 32.0091 52.6833 30.7607 52.4778 29.5104C52.4041 29.0618 52.33 28.6113 52.2555 28.1621L52.2471 28.112L52.2199 28.0687C52.1686 27.9872 52.1635 27.9073 52.1635 27.7369V27.7172L52.1604 27.6977C52.1048 27.3458 51.942 27.0183 51.6933 26.7581C51.4453 26.4986 51.1232 26.318 50.7689 26.2396C50.4152 26.1543 50.0435 26.1731 49.7006 26.2937C49.3586 26.414 49.0605 26.6302 48.8435 26.9152C48.6631 27.1339 48.5152 27.3765 48.4044 27.6357C48.1529 28.1941 47.8992 28.7539 47.6448 29.3152L47.6404 29.3249C47.0053 30.7262 46.3659 32.1369 45.7451 33.5587L45.7432 33.5633C45.3621 34.4852 45.0475 35.4566 44.734 36.425C44.6714 36.6183 44.6088 36.8115 44.5457 37.0042C44.4325 37.3098 44.383 37.6344 44.4 37.9589C44.3794 38.2494 44.4505 38.5392 44.6039 38.7891C44.7603 39.0441 44.9946 39.2447 45.2737 39.3628C45.5695 39.4896 45.9002 39.5165 46.2135 39.4393C46.5261 39.3622 46.8037 39.1858 47.0026 38.9378C47.2566 38.6323 47.4751 38.2991 47.6533 37.9461C48.1792 36.8943 48.6818 35.8297 49.1821 34.7697C49.3757 34.3597 49.5638 33.9925 49.7778 33.5926C49.7925 33.6419 49.8075 33.69 49.823 33.7382C50.0473 34.7037 50.4259 35.6285 50.9448 36.4787C51.043 36.6588 51.1798 36.8162 51.3458 36.9401C51.5138 37.0655 51.7077 37.1535 51.914 37.1982C52.1203 37.2429 52.3341 37.2431 52.5405 37.1988C52.7466 37.1546 52.9411 37.0665 53.1092 36.9417L53.4419 36.6982L56.0242 34.5715L55.8715 35.523C55.6619 36.8309 55.4539 38.1279 55.2329 39.4252C55.0883 40.0002 55.0885 40.6008 55.2335 41.1756C55.2963 41.4991 55.4563 41.7969 55.6931 42.0311C55.9319 42.2672 56.2377 42.4276 56.5709 42.4916C56.9041 42.5555 57.2493 42.5201 57.5616 42.3898C57.8694 42.2615 58.1312 42.0469 58.3142 41.7734C58.74 41.2569 59.005 40.6316 59.0778 39.9719C59.1874 39.0403 59.3112 38.096 59.4351 37.152C59.5778 36.0639 59.7205 34.9761 59.841 33.9092L59.8414 33.9059C59.9574 32.738 60.0135 31.5653 60.0096 30.3919C60.035 30.0211 59.9406 29.6517 59.7394 29.336C59.5375 29.0192 59.2385 28.7729 58.8851 28.632C58.5175 28.4686 58.106 28.4249 57.7111 28.5075C57.3188 28.5895 56.9637 28.7917 56.6973 29.0846C56.221 29.5153 55.7742 29.9762 55.3597 30.4643L55.3569 30.4676C54.9044 31.0189 54.455 31.581 54.0085 32.1395C53.737 32.479 53.4663 32.8177 53.197 33.1512Z" fill="white" fill-opacity="0.75"></path></g><defs><clipPath id="clip0_2868_1100"><rect width="70" height="44" fill="white" transform="translate(0 0.333984)"></rect></clipPath></defs></svg>