<svg xmlns="http://www.w3.org/2000/svg" width="104" height="52" viewBox="0 0 104 52" fill="none"><g clip-path="url(#clip0_2868_849)"><path d="M0.613281 45.9815H10.1049V43.2788H3.50759V30.6587H0.613281V45.9815Z" fill="white" fill-opacity="0.75"></path><path d="M15.808 46.301C16.9572 46.301 17.9681 46.0456 18.8406 45.5348C19.7202 45.0169 20.4048 44.304 20.8943 43.3961C21.3909 42.4809 21.6392 41.4275 21.6392 40.2357C21.6392 39.051 21.3944 38.0047 20.9049 37.0966C20.4154 36.1816 19.7309 35.4651 18.8512 34.9472C17.9787 34.4293 16.9643 34.1704 15.808 34.1704C14.6729 34.1704 13.6691 34.4258 12.7966 34.9366C11.9241 35.4473 11.2395 36.1602 10.7429 37.0754C10.2464 37.9834 9.99805 39.0368 9.99805 40.2357C9.99805 41.4204 10.2393 42.4703 10.7217 43.3854C11.2111 44.2934 11.8922 45.0063 12.7647 45.5242C13.6373 46.042 14.6517 46.301 15.808 46.301ZM15.808 43.5982C14.907 43.5982 14.2225 43.2967 13.7543 42.6938C13.2931 42.0837 13.0626 41.2643 13.0626 40.2357C13.0626 39.2355 13.2825 38.4267 13.7224 37.8096C14.1693 37.1853 14.8644 36.8732 15.808 36.8732C16.7231 36.8732 17.4112 37.1782 17.8723 37.7883C18.3405 38.3984 18.5746 39.2141 18.5746 40.2357C18.5746 41.2218 18.3441 42.0304 17.8829 42.6618C17.4289 43.286 16.7372 43.5982 15.808 43.5982Z" fill="white" fill-opacity="0.75"></path><path d="M27.3635 46.301C27.9027 46.301 28.3992 46.2371 28.8533 46.1094C29.3144 45.9818 29.7329 45.8008 30.1089 45.5667V46.7266C30.1231 47.1523 30.0131 47.5069 29.779 47.7907C29.552 48.0815 29.247 48.2979 28.8639 48.4398C28.4808 48.5888 28.0729 48.6633 27.6403 48.6633C27.2359 48.6633 26.8599 48.5746 26.5123 48.3972C26.1718 48.2199 25.9093 47.961 25.7248 47.6204L23.0434 48.9186C23.4832 49.6635 24.111 50.2629 24.9268 50.7169C25.7426 51.178 26.64 51.4086 27.6189 51.4086C28.4631 51.4086 29.247 51.295 29.9705 51.068C30.6942 50.8482 31.3042 50.5112 31.8008 50.0572C32.3044 49.6032 32.6485 49.025 32.833 48.3227C32.8968 48.0744 32.9393 47.8226 32.9606 47.5672C32.989 47.319 33.0032 47.0529 33.0032 46.7692V34.4896H30.4707V35.1281C30.0805 34.823 29.6371 34.5889 29.1406 34.4258C28.6511 34.2555 28.1085 34.1704 27.5125 34.1704C26.413 34.1704 25.4553 34.4329 24.6395 34.9578C23.8237 35.4828 23.1888 36.2028 22.7348 37.118C22.2878 38.0259 22.0645 39.0652 22.0645 40.2357C22.0645 41.3849 22.2843 42.417 22.7242 43.3322C23.1711 44.2473 23.7918 44.9709 24.5863 45.5029C25.3808 46.0349 26.3066 46.301 27.3635 46.301ZM27.8317 43.7259C27.2075 43.7259 26.6968 43.5698 26.2995 43.2577C25.9022 42.9456 25.6078 42.5271 25.4163 42.0021C25.2248 41.47 25.129 40.8813 25.129 40.2357C25.129 39.5972 25.2283 39.0156 25.4269 38.4906C25.6256 37.9585 25.9306 37.5365 26.342 37.2243C26.7606 36.9051 27.2926 36.7455 27.9381 36.7455C28.8462 36.7455 29.4952 37.0683 29.8854 37.7138C30.2756 38.3522 30.4707 39.1929 30.4707 40.2357C30.4707 41.2785 30.272 42.1226 29.8748 42.7682C29.4846 43.4067 28.8036 43.7259 27.8317 43.7259Z" fill="white" fill-opacity="0.75"></path><path d="M39.8763 46.301C41.0256 46.301 42.0365 46.0456 42.909 45.5348C43.7886 45.0169 44.4732 44.304 44.9627 43.3961C45.4592 42.4809 45.7075 41.4275 45.7075 40.2357C45.7075 39.051 45.4627 38.0047 44.9733 37.0966C44.4838 36.1816 43.7992 35.4651 42.9196 34.9472C42.0471 34.4293 41.0326 34.1704 39.8763 34.1704C38.7413 34.1704 37.7375 34.4258 36.865 34.9366C35.9924 35.4473 35.3079 36.1602 34.8113 37.0754C34.3147 37.9834 34.0664 39.0368 34.0664 40.2357C34.0664 41.4204 34.3076 42.4703 34.79 43.3854C35.2795 44.2934 35.9605 45.0063 36.833 45.5242C37.7056 46.042 38.72 46.301 39.8763 46.301ZM39.8763 43.5982C38.9754 43.5982 38.2908 43.2967 37.8226 42.6938C37.3615 42.0837 37.131 41.2643 37.131 40.2357C37.131 39.2355 37.3509 38.4267 37.7907 37.8096C38.2376 37.1853 38.9328 36.8732 39.8763 36.8732C40.7915 36.8732 41.4795 37.1782 41.9406 37.7883C42.4088 38.3984 42.6429 39.2141 42.6429 40.2357C42.6429 41.2218 42.4123 42.0304 41.9513 42.6618C41.4973 43.286 40.8056 43.5982 39.8763 43.5982Z" fill="white" fill-opacity="0.75"></path><path d="M46.9844 32.8931H49.8787V30.3394H46.9844V32.8931ZM46.9844 45.9814H49.8787V34.4893H46.9844V45.9814Z" fill="white" fill-opacity="0.75"></path><path d="M51.7695 51.0894H54.6851V45.5667C55.0611 45.8008 55.4761 45.9818 55.9301 46.1094C56.3912 46.2371 56.8914 46.301 57.4304 46.301C58.4875 46.301 59.4133 46.0349 60.2078 45.5029C61.0023 44.9709 61.6194 44.2473 62.0592 43.3322C62.5061 42.417 62.7296 41.3849 62.7296 40.2357C62.7296 39.0652 62.5026 38.0259 62.0486 37.118C61.6017 36.2028 60.9704 35.4828 60.1545 34.9578C59.3388 34.4329 58.3811 34.1704 57.2815 34.1704C56.6856 34.1704 56.1394 34.2555 55.6428 34.4258C55.1533 34.5889 54.7135 34.823 54.3234 35.1281V34.4896H51.7695V51.0894ZM56.9622 43.7259C55.9975 43.7259 55.3165 43.4067 54.9192 42.7682C54.5219 42.1226 54.3234 41.2785 54.3234 40.2357C54.3234 39.1929 54.5184 38.3522 54.9086 37.7138C55.3058 37.0683 55.955 36.7455 56.8559 36.7455C57.5014 36.7455 58.0299 36.9051 58.4413 37.2243C58.8599 37.5365 59.1685 37.9585 59.3671 38.4906C59.5658 39.0156 59.6651 39.5972 59.6651 40.2357C59.6651 40.8813 59.5693 41.47 59.3777 42.0021C59.1862 42.5271 58.8918 42.9456 58.4946 43.2577C58.0973 43.5698 57.5865 43.7259 56.9622 43.7259Z" fill="white" fill-opacity="0.75"></path><path d="M67.9727 46.301C69.4766 46.301 70.6541 45.964 71.5054 45.2901C72.3567 44.6161 72.7823 43.6904 72.7823 42.5128C72.7823 41.619 72.5057 40.9132 71.9523 40.3953C71.4061 39.8775 70.4768 39.4482 69.1644 39.1078C68.2706 38.8807 67.6038 38.6963 67.1639 38.5544C66.7312 38.4126 66.4439 38.2742 66.3021 38.1395C66.1673 38.0047 66.0999 37.838 66.0999 37.6393C66.0999 37.3059 66.2595 37.0506 66.5787 36.8732C66.905 36.6958 67.3342 36.6249 67.8662 36.6604C68.9942 36.7455 69.6114 37.2279 69.7177 38.1075L72.6759 37.5755C72.527 36.5327 72.0161 35.7063 71.1436 35.0962C70.2711 34.479 69.1573 34.1704 67.8024 34.1704C66.412 34.1704 65.3018 34.4967 64.4718 35.1494C63.6419 35.802 63.2268 36.6816 63.2268 37.7883C63.2268 38.6679 63.5141 39.3631 64.0887 39.8739C64.6634 40.3776 65.6529 40.8103 67.0575 41.1721C67.8876 41.392 68.4976 41.5693 68.8878 41.7041C69.2851 41.8389 69.5404 41.9773 69.6539 42.1191C69.7674 42.2539 69.8241 42.4348 69.8241 42.6618C69.8241 43.0236 69.6823 43.3074 69.3985 43.5131C69.1147 43.7117 68.7104 43.811 68.1855 43.811C67.547 43.811 67.0186 43.6585 66.6 43.3534C66.1885 43.0484 65.9226 42.6264 65.8019 42.0872L62.8438 42.5341C63.0353 43.733 63.5745 44.6623 64.4612 45.322C65.355 45.9747 66.5255 46.301 67.9727 46.301Z" fill="white" fill-opacity="0.75"></path><path d="M78.1232 46.3219C78.9532 46.3219 79.6768 46.1836 80.294 45.9069C80.9112 45.6302 81.429 45.2614 81.8476 44.8003V45.9814H84.4011V34.4893H81.4857V40.3205C81.4857 41.0299 81.4042 41.6044 81.241 42.0443C81.0849 42.477 80.8828 42.8069 80.6344 43.0338C80.3862 43.2538 80.1202 43.4027 79.8364 43.4808C79.5527 43.5588 79.2866 43.5979 79.0384 43.5979C78.4212 43.5979 77.9423 43.4595 77.6019 43.1828C77.2684 42.9062 77.0272 42.5621 76.8782 42.1507C76.7293 41.7392 76.6406 41.3314 76.6122 40.927C76.5839 40.5155 76.5697 40.1786 76.5697 39.9161V34.4893H73.6328V40.9377C73.6328 41.1291 73.647 41.4342 73.6754 41.8527C73.7037 42.2713 73.7853 42.736 73.9201 43.2467C74.0549 43.7504 74.2783 44.2363 74.5905 44.7045C74.9097 45.1727 75.3531 45.5593 75.9206 45.8643C76.4881 46.1693 77.2223 46.3219 78.1232 46.3219Z" fill="white" fill-opacity="0.75"></path><path d="M86.0762 45.9817H88.9915V39.0225C88.9915 38.3629 89.1721 37.8273 89.5341 37.4158C89.9028 36.9972 90.3886 36.788 90.9922 36.788C91.6235 36.788 92.1167 37.0008 92.4712 37.4265C92.8324 37.845 93.0138 38.4338 93.0138 39.1928V45.9817H95.9083V39.0225C95.9083 38.3629 96.0889 37.8273 96.4509 37.4158C96.8196 36.9972 97.3054 36.788 97.9082 36.788C98.5402 36.788 99.0327 37.0008 99.3872 37.4265C99.7492 37.845 99.9306 38.4338 99.9306 39.1928V45.9817H102.824V38.4267C102.824 37.1711 102.487 36.1567 101.813 35.3834C101.147 34.6031 100.157 34.2129 98.8446 34.2129C98.1072 34.2129 97.4299 34.3725 96.8121 34.6917C96.1951 35.011 95.7026 35.4473 95.3331 36.0006C95.0354 35.4615 94.6099 35.0287 94.0564 34.7024C93.5029 34.3761 92.8149 34.2129 91.9922 34.2129C91.2966 34.2129 90.6586 34.3513 90.0767 34.6279C89.4948 34.8975 89.0124 35.2699 88.6295 35.7452V34.4895H86.0762V45.9817Z" fill="white" fill-opacity="0.75"></path><path d="M0.582031 12.9569C0.582032 6.26161 6.00966 0.833984 12.705 0.833984C16.3349 0.833985 19.5923 2.4294 21.8141 4.95727C25.8453 9.48308 29.1787 9.24497 32.7186 5.90384C34.4556 4.26389 36.7981 3.25857 39.3755 3.25857C44.7317 3.25858 49.0738 7.60068 49.0738 12.9569C49.0738 18.3132 44.7317 22.6553 39.3755 22.6553C36.7981 22.6553 34.4556 21.6499 32.7186 20.01C29.1795 16.6697 25.8468 16.4308 21.817 20.9532C19.5952 23.4831 16.3365 25.0799 12.705 25.0799C6.00966 25.0799 0.582031 19.6522 0.582031 12.9569Z" fill="#F2F5FA"></path><path d="M0.582031 12.9569C0.582032 6.26161 6.00966 0.833984 12.705 0.833984C16.3349 0.833985 19.5923 2.4294 21.8141 4.95727C25.8453 9.48308 29.1787 9.24497 32.7186 5.90384C34.4556 4.26389 36.7981 3.25857 39.3755 3.25857C44.7317 3.25858 49.0738 7.60068 49.0738 12.9569C49.0738 18.3132 44.7317 22.6553 39.3755 22.6553C36.7981 22.6553 34.4556 21.6499 32.7186 20.01C29.1795 16.6697 25.8468 16.4308 21.817 20.9532C19.5952 23.4831 16.3365 25.0799 12.705 25.0799C6.00966 25.0799 0.582031 19.6522 0.582031 12.9569Z" fill="url(#paint0_linear_2868_849)"></path><path d="M0.582031 12.9569C0.582032 6.26161 6.00966 0.833984 12.705 0.833984C16.3349 0.833985 19.5923 2.4294 21.8141 4.95727C25.8453 9.48308 29.1787 9.24497 32.7186 5.90384C34.4556 4.26389 36.7981 3.25857 39.3755 3.25857C44.7317 3.25858 49.0738 7.60068 49.0738 12.9569C49.0738 18.3132 44.7317 22.6553 39.3755 22.6553C36.7981 22.6553 34.4556 21.6499 32.7186 20.01C29.1795 16.6697 25.8468 16.4308 21.817 20.9532C19.5952 23.4831 16.3365 25.0799 12.705 25.0799C6.00966 25.0799 0.582031 19.6522 0.582031 12.9569Z" fill="url(#paint1_linear_2868_849)"></path><path d="M0.582031 12.9569C0.582032 6.26161 6.00966 0.833984 12.705 0.833984C16.3349 0.833985 19.5923 2.4294 21.8141 4.95727C25.8453 9.48308 29.1787 9.24497 32.7186 5.90384C34.4556 4.26389 36.7981 3.25857 39.3755 3.25857C44.7317 3.25858 49.0738 7.60068 49.0738 12.9569C49.0738 18.3132 44.7317 22.6553 39.3755 22.6553C36.7981 22.6553 34.4556 21.6499 32.7186 20.01C29.1795 16.6697 25.8468 16.4308 21.817 20.9532C19.5952 23.4831 16.3365 25.0799 12.705 25.0799C6.00966 25.0799 0.582031 19.6522 0.582031 12.9569Z" fill="url(#paint2_radial_2868_849)"></path><path d="M0.582031 12.9569C0.582032 6.26161 6.00966 0.833984 12.705 0.833984C16.3349 0.833985 19.5923 2.4294 21.8141 4.95727C25.8453 9.48308 29.1787 9.24497 32.7186 5.90384C34.4556 4.26389 36.7981 3.25857 39.3755 3.25857C44.7317 3.25858 49.0738 7.60068 49.0738 12.9569C49.0738 18.3132 44.7317 22.6553 39.3755 22.6553C36.7981 22.6553 34.4556 21.6499 32.7186 20.01C29.1795 16.6697 25.8468 16.4308 21.817 20.9532C19.5952 23.4831 16.3365 25.0799 12.705 25.0799C6.00966 25.0799 0.582031 19.6522 0.582031 12.9569Z" fill="url(#paint3_radial_2868_849)"></path><path d="M0.582031 12.9569C0.582032 6.26161 6.00966 0.833984 12.705 0.833984C16.3349 0.833985 19.5923 2.4294 21.8141 4.95727C25.8453 9.48308 29.1787 9.24497 32.7186 5.90384C34.4556 4.26389 36.7981 3.25857 39.3755 3.25857C44.7317 3.25858 49.0738 7.60068 49.0738 12.9569C49.0738 18.3132 44.7317 22.6553 39.3755 22.6553C36.7981 22.6553 34.4556 21.6499 32.7186 20.01C29.1795 16.6697 25.8468 16.4308 21.817 20.9532C19.5952 23.4831 16.3365 25.0799 12.705 25.0799C6.00966 25.0799 0.582031 19.6522 0.582031 12.9569Z" fill="url(#paint4_radial_2868_849)"></path></g><defs><linearGradient id="paint0_linear_2868_849" x1="37.1148" y1="18.9824" x2="9.19652" y2="-2.71368" gradientUnits="userSpaceOnUse"><stop stop-color="#FF557E"></stop><stop offset="0.841052" stop-color="#FF5555" stop-opacity="0"></stop></linearGradient><linearGradient id="paint1_linear_2868_849" x1="12.7069" y1="23.454" x2="20.1659" y2="-2.38484" gradientUnits="userSpaceOnUse"><stop stop-color="#58CCDC"></stop><stop offset="1" stop-color="#58CCDC" stop-opacity="0"></stop></linearGradient><radialGradient id="paint2_radial_2868_849" cx="0" cy="0" r="1" gradientUnits="userSpaceOnUse" gradientTransform="translate(38.6129 30.1306) rotate(-122.928) scale(30.9771 25.3656)"><stop stop-color="#8263DB"></stop><stop offset="0.568731" stop-color="#8172DA" stop-opacity="0.26"></stop><stop offset="1" stop-color="#8172DA" stop-opacity="0"></stop></radialGradient><radialGradient id="paint3_radial_2868_849" cx="0" cy="0" r="1" gradientUnits="userSpaceOnUse" gradientTransform="translate(15.8838 -2.67334) rotate(77.6745) scale(20.8654 32.7958)"><stop stop-color="#41D1B7"></stop><stop offset="0.492704" stop-color="#41D1B7" stop-opacity="0.35"></stop><stop offset="1" stop-color="#41D1B7" stop-opacity="0"></stop></radialGradient><radialGradient id="paint4_radial_2868_849" cx="0" cy="0" r="1" gradientUnits="userSpaceOnUse" gradientTransform="translate(50.4488 -8.14921) rotate(125.113) scale(22.6675 48.012)"><stop stop-color="#FFEC45"></stop><stop offset="0.549191" stop-color="#FFEC45" stop-opacity="0.3"></stop><stop offset="0.961144" stop-color="#FFEC45" stop-opacity="0"></stop></radialGradient><clipPath id="clip0_2868_849"><rect width="102.836" height="51" fill="white" transform="translate(0.582031 0.833984)"></rect></clipPath></defs></svg>